<svg xmlns="http://www.w3.org/2000/svg" fill="none" viewBox="0 0 245 48">
  <defs/>
  <path fill="#fff" d="M66.786 23.728h5.88V35.01c-1.51 1.139-3.258 2.013-5.245 2.622-1.986.609-3.986.913-5.999.913-2.887 0-5.482-.609-7.787-1.827-2.304-1.245-4.118-2.953-5.443-5.125-1.298-2.198-1.947-4.674-1.947-7.428 0-2.754.65-5.217 1.947-7.389 1.325-2.198 3.152-3.906 5.483-5.124 2.33-1.245 4.953-1.867 7.866-1.867 2.437 0 4.649.41 6.635 1.231 1.987.821 3.655 2.013 5.006 3.576l-4.132 3.813c-1.986-2.092-4.383-3.138-7.19-3.138-1.775 0-3.351.37-4.729 1.112a7.98 7.98 0 00-3.218 3.138c-.768 1.351-1.152 2.9-1.152 4.648 0 1.722.384 3.258 1.152 4.608a8.327 8.327 0 003.179 3.178c1.377.742 2.94 1.112 4.688 1.112 1.854 0 3.522-.397 5.006-1.191v-8.144zM78.207 16.697h6.198v21.372h-6.198V16.697zm3.1-2.98c-1.14 0-2.067-.33-2.782-.992-.715-.662-1.073-1.483-1.073-2.463s.358-1.801 1.073-2.463c.715-.662 1.642-.993 2.781-.993 1.14 0 2.066.317 2.781.953.715.636 1.073 1.43 1.073 2.383 0 1.033-.358 1.894-1.073 2.583-.715.662-1.642.993-2.78.993zM96.951 17.174h5.483v4.767H97.11v16.128h-6.198V21.94h-3.297v-4.767h3.297v-.954c0-2.436.715-4.37 2.146-5.8 1.456-1.43 3.496-2.145 6.118-2.145.927 0 1.801.106 2.622.318.848.186 1.55.464 2.106.834l-1.629 4.49c-.715-.504-1.55-.755-2.503-.755-1.88 0-2.82 1.032-2.82 3.098v.914zm8.582-8.58h6.198v29.475h-6.198V8.593zM138.726 16.697l-9.654 22.683c-.98 2.462-2.199 4.197-3.655 5.203-1.431 1.007-3.166 1.51-5.205 1.51-1.113 0-2.212-.172-3.298-.517-1.086-.344-1.973-.82-2.662-1.43l2.265-4.409c.477.424 1.02.755 1.629.993a5.3 5.3 0 001.867.358c.848 0 1.536-.212 2.066-.636.53-.397 1.007-1.072 1.43-2.026l.08-.199-9.257-21.53h6.396l6 14.5 6.039-14.5h5.959zM153.714 13.718h-9.535v-3.456h23.004v3.456h-9.535V38.07h-3.934V13.72zM170.449 17.015h3.814V38.07h-3.814V17.015zm1.907-4.051c-.741 0-1.364-.239-1.867-.716a2.376 2.376 0 01-.715-1.747c0-.689.238-1.271.715-1.748.503-.503 1.126-.755 1.867-.755.742 0 1.351.238 1.828.715.503.45.755 1.02.755 1.708a2.49 2.49 0 01-.755 1.828c-.477.476-1.086.715-1.828.715zM207.886 16.817c2.649 0 4.742.768 6.278 2.304 1.562 1.536 2.344 3.813 2.344 6.832V38.07h-3.814V26.39c0-2.039-.477-3.575-1.431-4.608-.927-1.032-2.264-1.549-4.012-1.549-1.934 0-3.47.61-4.609 1.827-1.139 1.192-1.708 2.914-1.708 5.165v10.844h-3.814V26.39c0-2.039-.477-3.575-1.431-4.608-.927-1.032-2.264-1.549-4.012-1.549-1.934 0-3.47.61-4.609 1.827-1.139 1.192-1.708 2.914-1.708 5.165v10.844h-3.814V17.015h3.655v3.139a7.241 7.241 0 013.019-2.463c1.245-.583 2.662-.874 4.251-.874 1.642 0 3.099.33 4.371.993a6.906 6.906 0 012.94 2.9c.794-1.218 1.893-2.172 3.297-2.86 1.43-.689 3.033-1.033 4.807-1.033zM242.673 27.662c0 .29-.027.675-.08 1.152h-17.084c.239 1.853 1.047 3.35 2.424 4.488 1.404 1.113 3.139 1.669 5.204 1.669 2.517 0 4.543-.848 6.079-2.543l2.106 2.463c-.954 1.113-2.146 1.96-3.576 2.543-1.404.582-2.98.874-4.728.874-2.225 0-4.198-.45-5.919-1.351-1.722-.927-3.06-2.211-4.013-3.853-.927-1.642-1.391-3.496-1.391-5.562 0-2.039.451-3.88 1.351-5.521.927-1.642 2.185-2.913 3.774-3.814 1.616-.927 3.43-1.39 5.443-1.39 2.013 0 3.801.463 5.364 1.39 1.589.9 2.821 2.172 3.695 3.814.9 1.642 1.351 3.522 1.351 5.64zm-10.41-7.627c-1.827 0-3.363.556-4.608 1.668-1.219 1.112-1.934 2.569-2.146 4.37h13.508c-.211-1.775-.94-3.218-2.185-4.33-1.218-1.14-2.741-1.708-4.569-1.708zM32.552 24.448L12.029 12.377h24.145l-3.622 12.07zM5.992 25.655l20.524 12.07H2.37l3.622-12.07z"/>
  <path fill="orange" d="M1.405 8.275L33.47 27.306l1.111 12.418-29.72-16.549-3.456-14.9z"/>
</svg>