<svg xmlns="http://www.w3.org/2000/svg" fill="none" viewBox="0 0 321 361">
  <defs/>
  <g clip-path="url(#clip0)">
    <path fill="#454545" d="M258.5 182.87c-3.42 1.78-21.12 9.05-24.88 11.02-3.77 1.96-5.86 1.94-8.84.52-2.97-1.42-21.8-9.03-25.2-10.65-1.69-.8-2.58-1.5-2.58-2.14v-6.47s24.51-5.33 28.47-6.75c3.96-1.42 5.33-1.47 8.7-.24 3.37 1.23 23.5 4.87 26.83 6.09v6.38c0 .64-.77 1.35-2.5 2.24z"/>
    <path fill="#5E5E5E" d="M258.5 176.4c-3.42 1.78-21.12 9.05-24.88 11.02-3.77 1.96-5.86 1.94-8.84.52-2.97-1.42-21.8-9.03-25.2-10.65-3.38-1.62-3.45-2.74-.12-4.04l26.01-10.07c3.96-1.42 5.33-1.47 8.7-.24 3.37 1.23 20.95 8.23 24.28 9.47 3.32 1.24 3.45 2.22.04 4v-.01z"/>
    <path fill="#454545" d="M258.5 172.32c-3.42 1.78-21.12 9.06-24.88 11.02-3.77 1.96-5.86 1.94-8.84.52-2.97-1.42-21.8-9.03-25.2-10.65-1.69-.8-2.58-1.5-2.58-2.14v-6.47s24.51-5.33 28.47-6.75c3.96-1.42 5.33-1.47 8.7-.24 3.37 1.23 23.5 4.87 26.83 6.09v6.38c0 .64-.77 1.35-2.5 2.24z"/>
    <path fill="#5E5E5E" d="M258.5 165.85c-3.42 1.78-21.12 9.06-24.88 11.02-3.77 1.96-5.86 1.94-8.84.52-2.97-1.42-21.8-9.02-25.2-10.65-3.38-1.62-3.45-2.73-.12-4.04l26.01-10.07c3.96-1.42 5.33-1.47 8.7-.24 3.37 1.24 20.95 8.24 24.28 9.46 3.33 1.21 3.46 2.22.04 4z"/>
    <path fill="#454545" d="M258.5 161.38c-3.42 1.78-21.12 9.06-24.88 11.02-3.77 1.96-5.86 1.94-8.84.52-2.97-1.42-21.8-9.02-25.2-10.65-1.69-.8-2.58-1.49-2.58-2.13v-6.48s24.51-5.33 28.47-6.75c3.96-1.42 5.33-1.47 8.7-.24 3.37 1.23 23.5 4.87 26.83 6.09v6.38c0 .64-.77 1.35-2.5 2.24z"/>
    <path fill="#5E5E5E" d="M258.5 154.9c-3.42 1.79-21.12 9.06-24.88 11.03-3.77 1.96-5.86 1.94-8.84.52-2.97-1.42-21.8-9.03-25.2-10.65-3.38-1.62-3.45-2.74-.12-4.04l26.01-10.07c3.96-1.42 5.33-1.47 8.7-.24 3.37 1.24 20.95 8.24 24.28 9.45 3.33 1.22 3.46 2.22.04 4z"/>
    <path fill="#fff" d="M230.6 152.24l-2-3.33-6.41-.58 4.78-1.72-1.44-2.65 4.48 1.75 4.21-1.38-1.14 2.73 4.3 1.61-5.54.58-1.24 3zm-10.68 6.64l14.83-2.28-4.48 6.57-10.35-4.3zM215.92 156.49c4.38 0 7.93-1.38 7.93-3.08 0-1.7-3.55-3.07-7.93-3.07s-7.93 1.38-7.93 3.07c0 1.7 3.55 3.08 7.93 3.08z"/>
    <path fill="#2C2C2C" d="M252.72 152.96l-8.78 3.47v-6.94l8.78 3.47z" style="mix-blend-mode:luminosity"/>
    <path fill="#4A4A4A" d="M243.95 156.43l-.95.37-8.77-3.46 9.71-3.84v6.93z"/>
  </g>
  <path fill="#000" d="M212.45 211.82h-3V217h-1.7v-12.8h4.24a5 5 0 013.32.99c.78.65 1.17 1.6 1.17 2.86 0 .8-.22 1.5-.65 2.09a3.83 3.83 0 01-1.8 1.32l3 5.44v.1h-1.8l-2.78-5.18zm-3-1.38h2.59c.84 0 1.5-.21 2-.65.5-.43.74-1.01.74-1.74 0-.79-.24-1.4-.71-1.82-.47-.42-1.15-.63-2.04-.64h-2.59v4.85zm13.1 6.74a4.16 4.16 0 01-3.16-1.27 4.73 4.73 0 01-1.2-3.4v-.3c0-.94.17-1.78.53-2.52.36-.75.87-1.33 1.5-1.74a3.8 3.8 0 012.12-.64c1.23 0 2.2.41 2.88 1.23.69.81 1.03 1.98 1.03 3.5v.67h-6.44c.02.94.3 1.7.81 2.28.53.57 1.2.86 2 .86.58 0 1.07-.12 1.47-.35.4-.24.75-.55 1.04-.94l1 .78a4 4 0 01-3.59 1.84zm-.21-8.53c-.66 0-1.2.24-1.65.72a3.46 3.46 0 00-.83 2h4.76v-.12a3.08 3.08 0 00-.66-1.91c-.4-.46-.94-.69-1.62-.69zm5.4 3.52c0-1.46.35-2.63 1.04-3.52.7-.89 1.6-1.34 2.72-1.34 1.11 0 2 .38 2.64 1.15v-4.96h1.63V217h-1.5l-.08-1.02c-.65.8-1.55 1.2-2.71 1.2-1.1 0-2-.46-2.7-1.36a5.65 5.65 0 01-1.04-3.53v-.12zm1.63.18c0 1.08.22 1.92.67 2.53.44.61 1.06.92 1.84.92 1.03 0 1.79-.47 2.26-1.4v-4.36a2.4 2.4 0 00-2.24-1.35c-.8 0-1.42.31-1.86.93a4.65 4.65 0 00-.67 2.73zm10.7 4.65h-1.63v-9.51h1.63V217zm-1.76-12.03c0-.27.08-.49.24-.67.16-.18.4-.27.72-.27.31 0 .55.09.72.27.16.18.24.4.24.67 0 .26-.08.48-.24.66-.17.17-.4.26-.72.26-.32 0-.56-.09-.72-.26a.95.95 0 01-.24-.66zm9.9 9.5c0-.43-.16-.77-.5-1.01-.33-.25-.9-.46-1.73-.64a8.3 8.3 0 01-1.96-.63 2.84 2.84 0 01-1.07-.88 2.12 2.12 0 01-.34-1.2c0-.79.32-1.45.98-1.99.66-.54 1.5-.8 2.53-.8 1.08 0 1.95.27 2.62.83a2.65 2.65 0 011.01 2.13h-1.63c0-.44-.2-.82-.57-1.15a2.11 2.11 0 00-1.43-.48c-.59 0-1.05.13-1.39.39-.33.25-.5.6-.5 1s.16.7.47.9c.3.2.87.38 1.68.57.81.18 1.47.4 1.97.65s.88.55 1.12.91c.25.35.37.78.37 1.3 0 .84-.34 1.53-1.02 2.04-.68.51-1.56.77-2.64.77-.77 0-1.44-.14-2.03-.4a3.32 3.32 0 01-1.38-1.13 2.76 2.76 0 01-.49-1.58h1.63c.03.55.24.98.65 1.3.4.32.95.48 1.62.48.61 0 1.1-.12 1.47-.37.38-.25.56-.59.56-1zM156.34 5.2l3.7 9.81 3.67-9.8h2.88V18h-2.22v-4.22l.22-5.64-3.78 9.86h-1.59l-3.77-9.85.22 5.63V18h-2.21V5.2h2.88zM171.29 18h-2.14V8.49h2.14V18zm-2.27-11.98c0-.33.1-.6.31-.82.21-.21.51-.32.9-.32.38 0 .68.1.9.32.2.22.3.5.3.82 0 .32-.1.6-.3.8-.22.22-.52.33-.9.33-.39 0-.69-.11-.9-.32-.2-.22-.3-.49-.3-.8zm6.58 2.47l.07 1.1a3.42 3.42 0 012.77-1.28c1.98 0 2.98 1.14 3.02 3.4V18h-2.14v-6.16c0-.6-.13-1.05-.4-1.34-.25-.29-.67-.44-1.27-.44-.86 0-1.5.4-1.92 1.17V18h-2.14V8.49h2.01zm12.23 9.69a4.44 4.44 0 01-3.3-1.28c-.83-.85-1.25-2-1.25-3.4v-.27c0-.95.18-1.8.54-2.54a4.08 4.08 0 013.76-2.37c1.3 0 2.3.4 3 1.23.71.83 1.07 2 1.07 3.51v.86h-6.22c.07.79.33 1.4.78 1.87.47.45 1.05.68 1.74.68.98 0 1.78-.4 2.4-1.19l1.15 1.1c-.38.57-.9 1.01-1.53 1.33-.64.31-1.35.47-2.14.47zm-.25-8.15c-.59 0-1.06.2-1.43.61a3.2 3.2 0 00-.68 1.72h4.07v-.16a2.58 2.58 0 00-.57-1.62c-.34-.37-.8-.55-1.4-.55zm10.71.41a5.28 5.28 0 00-.87-.07c-.98 0-1.64.38-1.98 1.13V18h-2.13V8.49h2.04l.05 1.06a2.4 2.4 0 012.14-1.24 2 2 0 01.76.13l-.01 2zm6.68 4.98a.97.97 0 00-.47-.87c-.31-.2-.83-.38-1.56-.53a8.02 8.02 0 01-1.82-.58c-1.07-.52-1.6-1.26-1.6-2.24 0-.82.35-1.5 1.04-2.06a4.1 4.1 0 012.63-.83c1.14 0 2.06.29 2.75.85.7.56 1.06 1.29 1.06 2.19h-2.14c0-.41-.15-.75-.45-1.02-.3-.28-.71-.42-1.22-.42-.46 0-.85.11-1.15.33-.29.22-.44.5-.44.87 0 .33.14.58.42.76.27.19.83.37 1.67.56.83.18 1.5.4 1.97.66.48.25.83.55 1.06.91.23.36.35.8.35 1.3 0 .86-.35 1.55-1.06 2.08-.71.53-1.64.8-2.79.8-.78 0-1.47-.14-2.08-.43a3.43 3.43 0 01-1.43-1.16 2.75 2.75 0 01-.5-1.59h2.07c.03.5.22.9.57 1.17.35.27.82.4 1.4.4.56 0 .99-.1 1.28-.31a1 1 0 00.44-.84z"/>
  <path fill="orange" d="M116.5 10.5a3 3 0 003-3c0-1.64-1.36-3-3-3-1.69 0-3 1.36-3 3 0 1.69 1.31 3 3 3zm21 0a3 3 0 003-3c0-1.64-1.36-3-3-3-1.69 0-3 1.36-3 3 0 1.69 1.31 3 3 3zM139 12h-3c-.84 0-1.6.38-2.16.9a6.9 6.9 0 013.57 5.1h3.09c.8 0 1.5-.66 1.5-1.5V15c0-1.64-1.36-3-3-3zm-12 0a5.27 5.27 0 005.25-5.25A5.3 5.3 0 00127 1.5a5.24 5.24 0 100 10.5zm3.56 1.5h-.37c-.99.47-2.06.75-3.19.75a7.45 7.45 0 01-3.23-.75h-.38c-3 0-5.39 2.44-5.39 5.44v1.31c0 1.27.98 2.25 2.25 2.25h13.5c1.22 0 2.25-.98 2.25-2.25v-1.31c0-3-2.44-5.44-5.44-5.44zm-10.45-.6A3.2 3.2 0 00118 12h-3c-1.69 0-3 1.36-3 3v1.5c0 .84.66 1.5 1.5 1.5h3.05a6.91 6.91 0 013.56-5.1z"/>
  <path fill="#D8D8D8" d="M254.5 81.5c.07 1.44 1.47.77 2.1.32.6-.44.78-.07.83-.91.04-.57.1-1.11.07-1.67-.91-.09-1.9.14-2.64.7-.4.28-1.1 1.2-.36 1.55zM282.46 99.25c1.08.69 3.05 2.76 1.43 3.77-1.55 1.46-2.42-1.61-3.78-2.03.58-.83 1.32-1.59 2.35-1.74zM263.2 101.6c-1.26.19-1.97 1.37-3.03 1.97-1 .6-1.38-.2-1.46-.36-.15-.07-.13.07-.38-.19-.93-1.5.95-2.6 1.94-3.33 1.36-.29 2.21.94 2.94 1.9zM288.44 81.31c-.07 1.45-1.47.77-2.1.32-.6-.43-.77-.07-.83-.9-.04-.57-.1-1.12-.06-1.68.9-.08 1.89.14 2.64.7.38.29 1.1 1.21.35 1.56z" style="mix-blend-mode:luminosity"/>
  <path fill="#B7B7B7" d="M284.72 63.7c4.87-1.77 1.07-8.63-3.17-5.6-2.78-2.45-6.6-2.9-10.62-2.9-3.94.32-7.68 1.06-10.3 3.42-4.22-2.8-8.11 3.93-3.16 5.62-1.39 5.56.2 11.22-.02 16.88-.2 5.07-1.5 11.88 1.24 16.43 2.32 3.9 7.33 5.3 11.46 5.45 5.27.2 11.66-1.14 14.22-6.4 2.45-5 1.77-11.25 1.46-16.65-.32-5.45.27-11-1.1-16.25z" style="mix-blend-mode:luminosity"/>
  <path fill="#000" d="M288.8 80.46c-.13-.3-.39-.63-.63-.82a4.05 4.05 0 00-2.26-.74c-.03-.87-.06-1.82-.06-3.03v-1.1a65.37 65.37 0 00-.24-6.85 28.51 28.51 0 00-.7-4.15c1.1-.44 1.82-1.15 2.1-2.08a3.63 3.63 0 00-2.45-4.4 3.5 3.5 0 00-2.98.61c-.89-.77-1.9-1.36-3.05-1.8-2.03-.78-4.39-1.07-7.59-1.07v.14l-.01-.14c-3.42.28-5.95.83-8.05 1.88a10 10 0 00-2.25 1.51c-1-.64-2.05-.8-3.02-.49-.9.28-1.68.94-2.14 1.8a3.27 3.27 0 00-.26 2.68c.31.84 1.04 1.5 2.11 1.9a20.89 20.89 0 00-.54 4.58 53 53 0 00.28 5.82c.18 2.17.25 3.17.28 4.37a3.99 3.99 0 00-2.55.73c-.25.18-.52.5-.64.81-.18.4-.1.75.25.96.05.67.42.98.98.92.4-.04.9-.26 1.32-.57.1-.07.19-.13.28-.17l.11-.04.11-.04c.04-.02.08-.03.1-.06-.02.66-.07 1.35-.2 2.92-.13 1.77-.2 2.73-.23 3.81-.12 4.01.34 6.93 1.73 9.25.44.73.97 1.37 1.6 1.96-.13.08-.64.48-.8.6a4.4 4.4 0 00-1.2 1.25c-.3.55-.3 1.1.04 1.67v.01l.02.02c.15.15.23.2.34.2h.04l.05.06.12.19c.34.4.81.5 1.45.1.35-.17.59-.38 1.1-.83l.03-.03c.84-.73 1.24-1 1.86-1.1l.21-.04.26.12c1.94.8 4.18 1.23 6.46 1.31 2.94.12 5.77-.26 8.17-1.16a14.4 14.4 0 001.81-.83c.36.14.65.44 1.23 1.12l.04.06.04.06.1.1c.44.56.74.82 1.08.98.45.2.89.1 1.34-.33.79-.5.84-1.29.32-2.18-.36-.63-1-1.3-1.6-1.72a9.7 9.7 0 001.8-2.53c1.3-2.7 1.8-5.84 1.78-9.88a88.46 88.46 0 00-.22-5.06v-.07a.8.8 0 01.2.12c.43.3.92.54 1.33.58.56.06.92-.25.98-.93.34-.22.4-.57.23-.96zm-4.32-22.88c.82.22 1.52.81 1.96 1.6.44.78.56 1.67.31 2.45-.26.83-.91 1.5-1.93 1.88-.2-.75-.45-1.5-.72-2.21.4-.35.58-.79.27-1.4-.31-.62-.86-.7-1.42-.51-.35-.48-.75-.9-1.15-1.3.9-.58 1.82-.75 2.68-.51zm-29.04 4.74c-.28-.76-.19-1.65.25-2.44a3.45 3.45 0 011.99-1.65 3.3 3.3 0 012.73.42c-.53.49-1 1.05-1.41 1.67-.71-.38-1.43-.45-1.84.32-.42.83.07 1.34.76 1.74a12.27 12.27 0 00-.54 1.7c-1-.4-1.65-1-1.94-1.76zm1.65 19.12l-.1.04a.46.46 0 00-.12.06c-.1.04-.21.1-.32.2-.38.27-.85.48-1.2.51-.41.04-.64-.14-.68-.64.28-.1.4-.17.52-.34l-.22-.17c-.09.11-.17.16-.41.24l-.03.01c-.22-.12-.26-.32-.13-.6a2 2 0 01.55-.7c.66-.5 1.53-.73 2.4-.67v1.03l-.01.12-.03.38c-.04.4-.07.46-.22.53zm4.11 21.16c0 .02 0 .02-.02.03-.5.45-.75.63-1.06.81-.52.33-.88.26-1.12-.05l-.1-.14-.04-.06v-.01c.03-.25.12-.44.37-.83l.01-.03c.15-.22.22-.35.29-.5l-.25-.11c-.05.12-.12.23-.25.46-.02.01-.02.01-.02.03-.24.36-.35.58-.4.84h-.02-.04a.5.5 0 01-.12-.1c-.54-.87-.11-1.61 1.09-2.54l.79-.59.08-.03c.73.65 1.6 1.21 2.54 1.67 0 .02.02.03.03.05-.56.14-1 .43-1.76 1.1zm22.87-1.53c.42.73.4 1.32-.12 1.73l-.13-.32v-.03a2.57 2.57 0 00-.55-1.01l-.2.2c.21.2.3.4.5.9l.01.02c.07.18.1.3.15.4-.35.3-.67.36-1 .2a3.2 3.2 0 01-.99-.9c-.03-.02-.05-.06-.08-.1l-.04-.06-.04-.06c-.5-.6-.8-.92-1.13-1.1.76-.45 1.44-.96 2.05-1.55a6.48 6.48 0 011.57 1.68zm.2-4.54c-1.18 2.43-3.25 4.14-6.03 5.17a21.06 21.06 0 01-8.07 1.14c-5-.18-9.33-1.98-11.36-5.37-1.36-2.26-1.81-5.13-1.7-9.09.05-1.08.1-2.05.24-3.81.15-2 .2-2.57.23-3.47.03-.64.03-1.3.02-2a70.4 70.4 0 00-.28-4.42c-.24-2.92-.31-4.2-.28-5.8.04-2.1.31-3.95.88-5.7a9.82 9.82 0 015.08-6.02c2.06-1.04 4.55-1.57 7.94-1.85 3.18 0 5.49.3 7.5 1.05a9.67 9.67 0 015.4 4.97c.79 1.99 1.25 4.13 1.5 6.6.19 1.88.23 3.4.24 6.83v1.1c.02 1.7.04 2.89.11 4.08l.11 1.76a89 89 0 01.22 5.05c.03 4.03-.46 7.13-1.76 9.78zm4.16-15.36l-.04-.01c-.25-.09-.33-.14-.41-.24l-.22.17c.12.17.25.24.52.33-.06.5-.29.7-.68.65a2.76 2.76 0 01-1.2-.52c-.11-.08-.22-.14-.33-.2l-.04-.01-.08-1.37-.04-.76c.76.01 1.51.25 2.08.69a2 2 0 01.56.7c.14.24.11.45-.12.57z"/>
  <path fill="#fff" d="M273 69.66c0 .72.14 1.5.02 2.26-.2.36-.54.4-.86.55-.43-.07-.8-.37-.98-.79-.1-.86.03-1.67.07-2.52a3.26 3.26 0 011.74.5zM269.14 69.72c-.38 1.48.5 3.91 1.96 1.92-.1-.84.01-1.66.05-2.48.02-.07-2 .46-2.01.56z"/>
  <path fill="#000" d="M273.16 70.32c-.03-.42-.05-.59-.05-.8v-.1l-.09-.03-1.72-.54v-.1l-.17.04h-.02v.02l-1.93.5-.07.01-.03.07c-.3.75-.23 1.87.15 2.56.44.78 1.15.8 1.87-.1.2.4.58.69 1.02.76h.04l.04-.02.2-.08c.02 0 .02 0 .03-.02.4-.14.56-.25.7-.52h.01v-.04c.04-.25.06-.52.06-.81 0-.21-.02-.4-.04-.8zm-2.18-.52l-.04.5c-.03.51-.03.9.01 1.3-.64.84-1.14.84-1.49.2a3.04 3.04 0 01-.14-2.24l1.71-.45-.05.7zm1.9 2.08c-.1.17-.21.25-.54.36l-.03.02c-.08.02-.13.05-.18.07a1.14 1.14 0 01-.83-.68 7.94 7.94 0 01-.01-1.29l.04-.49c.03-.32.04-.52.04-.7l1.49.46c0 .19.01.35.04.72.03.38.04.57.04.8 0 .26-.01.5-.06.73z"/>
  <path fill="#fff" d="M260.94 63.55c1.25 5.02 9.06 3.73 8.76-1.3-.36-6.04-9.96-4.87-8.76 1.3z"/>
  <path fill="#000" d="M269.83 62.23a4.14 4.14 0 00-1.74-3.3 4.85 4.85 0 00-3.36-.75 4.83 4.83 0 00-3.07 1.61 4.38 4.38 0 00-.84 3.76l.12-.03-.12.03c1.28 5.16 9.31 3.91 9.01-1.32zm-8.77 1.3a4.1 4.1 0 01.8-3.54 4.57 4.57 0 012.9-1.53 4.5 4.5 0 013.18.7 3.9 3.9 0 011.63 3.11c.3 4.9-7.3 6.08-8.5 1.25z"/>
  <path fill="#000" d="M263.1 64.2c.72 0 1.31-.66 1.31-1.48 0-.81-.59-1.47-1.32-1.47-.73 0-1.32.66-1.32 1.47 0 .82.6 1.48 1.32 1.48z"/>
  <path fill="#fff" d="M263.7 63.44c.17 0 .3-.17.3-.38s-.13-.38-.3-.38c-.18 0-.32.17-.32.38 0 .2.14.38.31.38zM271.88 62.61c.97 5.77 10.12 4.24 8.8-1.57-1.18-5.22-9.12-3.77-8.8 1.57z"/>
  <path fill="#000" d="M280.8 61.01c-1.2-5.37-9.38-3.9-9.05 1.62.45 2.73 2.8 4.12 5.4 3.67a4.83 4.83 0 002.95-1.67 4.14 4.14 0 00.7-3.62zm-.9 3.45a4.54 4.54 0 01-2.79 1.57c-2.46.42-4.67-.88-5.1-3.43-.3-5.2 7.4-6.58 8.55-1.53.3 1.33.05 2.5-.67 3.4z"/>
  <path fill="#000" d="M274.13 63.83c.72 0 1.3-.66 1.3-1.47 0-.81-.58-1.47-1.3-1.47-.71 0-1.3.66-1.3 1.47 0 .81.59 1.47 1.3 1.47z"/>
  <path fill="#fff" d="M274.73 63.07c.17 0 .3-.17.3-.37 0-.21-.13-.38-.3-.38-.17 0-.3.17-.3.38 0 .2.13.37.3.37z"/>
  <path fill="#D8D8D8" d="M269.42 66.69c-1.08.1-1.95 1.4-1.39 2.44.74 1.37 2.38-.13 3.4.01 1.19.03 2.16 1.3 3.1.23 1.05-1.18-.45-2.33-1.64-2.84l-3.47.16z" style="mix-blend-mode:luminosity"/>
  <path fill="#231F20" d="M274.66 67.63c-.37-.48-1-.92-1.7-1.21l-.03-.01h-.02l-3.49.14c-1.21.1-2.08 1.55-1.5 2.65.23.42.55.63.97.66.31.01.64-.06 1.14-.24l.17-.06c.68-.24.95-.3 1.22-.26h.01c.33 0 .6.1 1.12.3.57.24.75.31 1.04.34.4.03.73-.11 1.05-.46.53-.6.5-1.25.02-1.85zm-.23 1.65c-.26.3-.52.4-.83.38-.24-.01-.4-.08-.95-.3a3.1 3.1 0 00-1.2-.34c-.34-.05-.63.02-1.35.28l-.16.05c-1 .35-1.47.32-1.8-.3-.5-.9.26-2.14 1.28-2.24l3.44-.14c.66.28 1.25.69 1.58 1.12.41.51.43 1.01 0 1.5z"/>
  <path fill="#000" d="M273.17 66.08c-.43-1.6-3.97-1.36-3.89.55.18 1.42 4.3 1.04 3.89-.55z"/>
  <path fill="#D8D8D8" d="M66.5 81.5c-.07 1.44-1.47.77-2.1.32-.6-.44-.78-.07-.83-.91-.04-.57-.1-1.11-.07-1.67.91-.09 1.9.14 2.64.7.4.28 1.1 1.2.36 1.55zM38.54 99.25c-1.08.69-3.05 2.76-1.43 3.77 1.55 1.46 2.42-1.6 3.78-2.03-.58-.83-1.32-1.58-2.35-1.74zM57.8 101.6c1.26.19 1.97 1.37 3.03 1.97 1 .6 1.38-.2 1.46-.36.15-.07.13.07.38-.19.93-1.5-.95-2.6-1.93-3.33-1.37-.28-2.22.94-2.95 1.9zM32.56 81.31c.07 1.45 1.47.77 2.1.33.6-.44.77-.08.83-.92.04-.56.1-1.1.06-1.67-.9-.08-1.89.14-2.64.7-.38.29-1.1 1.21-.35 1.56z" style="mix-blend-mode:luminosity"/>
  <path fill="#B7B7B7" d="M36.28 63.7c-4.87-1.77-1.07-8.63 3.17-5.6 2.78-2.45 6.6-2.9 10.62-2.9 3.94.32 7.68 1.06 10.3 3.42 4.22-2.8 8.11 3.93 3.16 5.62 1.39 5.56-.2 11.22.02 16.88.2 5.07 1.5 11.88-1.23 16.43-2.33 3.9-7.35 5.3-11.47 5.45-5.27.2-11.66-1.14-14.22-6.4-2.45-5-1.77-11.25-1.46-16.65.32-5.45-.27-11 1.1-16.25z" style="mix-blend-mode:luminosity"/>
  <path fill="#000" d="M32.2 80.46c.13-.3.39-.63.63-.82a4.05 4.05 0 012.26-.74c.03-.87.06-1.82.06-3.03v-1.1c.01-3.44.05-4.96.24-6.85.15-1.49.38-2.86.7-4.15-1.1-.44-1.82-1.15-2.1-2.08a3.46 3.46 0 01.33-2.68 3.63 3.63 0 012.12-1.72 3.5 3.5 0 012.98.61c.89-.77 1.9-1.36 3.05-1.8 2.03-.78 4.39-1.07 7.59-1.07v.14l.01-.14c3.42.28 5.95.83 8.05 1.88.84.42 1.6.92 2.25 1.51 1-.64 2.05-.8 3.02-.49.9.28 1.68.94 2.14 1.8.46.85.57 1.83.26 2.68-.32.84-1.04 1.5-2.11 1.9.34 1.42.51 2.92.54 4.58.03 1.6-.04 2.9-.28 5.82a69.63 69.63 0 00-.28 4.37c.93-.04 1.86.21 2.55.73.25.18.52.5.64.82.18.39.1.74-.24.95-.06.67-.43.98-.99.92-.4-.04-.9-.26-1.32-.57-.1-.07-.19-.13-.28-.17l-.11-.04-.11-.04a.27.27 0 01-.1-.06c.02.66.07 1.35.2 2.92.13 1.77.2 2.73.23 3.81.12 4.01-.34 6.93-1.73 9.25a9.06 9.06 0 01-1.6 1.96c.13.08.64.48.8.6.58.45.97.83 1.2 1.25.3.55.3 1.1-.04 1.67v.01l-.02.02c-.15.15-.23.2-.34.2h-.04l-.04.06-.13.19c-.34.4-.81.5-1.45.1-.35-.17-.59-.38-1.1-.83l-.04-.03c-.83-.73-1.23-1-1.85-1.1l-.22-.04c-.08.05-.16.07-.25.12-1.94.8-4.18 1.23-6.46 1.31-2.94.12-5.77-.26-8.17-1.16-.64-.24-1.24-.52-1.81-.83-.36.14-.66.44-1.23 1.13l-.04.05-.04.06-.1.1c-.44.56-.74.82-1.08.98-.45.2-.89.1-1.34-.33-.79-.5-.84-1.29-.33-2.18.37-.63 1.01-1.3 1.61-1.71a9.7 9.7 0 01-1.8-2.54c-1.3-2.7-1.8-5.84-1.78-9.88.01-1.43.07-2.68.22-5.06v-.07a.81.81 0 00-.2.13c-.43.29-.92.53-1.33.57-.56.06-.92-.25-.98-.93-.34-.22-.4-.57-.23-.96zm4.32-22.88c-.82.23-1.52.81-1.96 1.6a3.15 3.15 0 00-.31 2.45c.26.83.91 1.5 1.93 1.88.2-.75.45-1.5.72-2.21-.4-.35-.58-.79-.27-1.4.31-.62.86-.7 1.42-.51.35-.48.75-.9 1.15-1.29a3.24 3.24 0 00-2.68-.52zm29.04 4.74c.28-.76.19-1.65-.25-2.44a3.45 3.45 0 00-1.99-1.65 3.3 3.3 0 00-2.73.42c.53.49 1 1.05 1.41 1.67.71-.38 1.43-.45 1.84.32.42.83-.07 1.35-.76 1.74a11.94 11.94 0 01.54 1.7c1-.4 1.65-1 1.94-1.76zM63.9 81.44l.1.04.12.06c.1.04.21.1.32.2.38.27.85.48 1.2.51.41.04.64-.14.68-.64-.28-.1-.4-.17-.51-.34l.21-.17c.08.11.17.16.41.24l.03.01c.22-.12.26-.32.14-.6a2 2 0 00-.56-.7 3.64 3.64 0 00-2.4-.67v1.03l.01.12.03.38c.04.4.07.46.22.53zM59.8 102.6c0 .02 0 .02.02.03.5.45.75.63 1.07.81.51.33.87.26 1.11-.05l.1-.14.04-.06v-.01c-.03-.25-.12-.44-.37-.83l-.01-.03a3.06 3.06 0 01-.29-.5l.25-.11c.05.12.12.23.25.46a2.35 2.35 0 01.42.87h.06a.5.5 0 00.12-.1c.53-.87.11-1.61-1.09-2.54l-.79-.59a.19.19 0 01-.08-.03c-.73.65-1.6 1.21-2.54 1.67 0 .02-.02.03-.03.05.56.14 1 .43 1.76 1.1zm-22.87-1.52c-.42.72-.4 1.31.12 1.72l.13-.32v-.03c.2-.53.32-.76.55-1.01l.2.2c-.21.2-.3.4-.5.9l-.01.02c-.07.18-.1.3-.15.4.35.3.67.36 1 .2.28-.12.55-.39.99-.9.03-.02.05-.06.08-.1a.18.18 0 00.04-.06l.04-.06c.5-.6.8-.92 1.13-1.1a10.9 10.9 0 01-2.05-1.55 6.48 6.48 0 00-1.57 1.69zm-.2-4.55c1.18 2.43 3.25 4.14 6.03 5.18a21.1 21.1 0 008.07 1.13c5-.18 9.33-1.98 11.36-5.37 1.36-2.26 1.81-5.13 1.7-9.09-.05-1.08-.1-2.05-.24-3.81-.15-2-.2-2.57-.23-3.47-.03-.64-.03-1.3-.02-2 .03-1.24.1-2.22.28-4.42.24-2.92.31-4.2.28-5.8-.04-2.1-.31-3.95-.88-5.7A9.82 9.82 0 0058 57.16c-2.06-1.04-4.55-1.57-7.94-1.85-3.17 0-5.49.3-7.5 1.05a9.67 9.67 0 00-5.4 4.97 24.1 24.1 0 00-1.5 6.6 65 65 0 00-.24 6.83v1.1a81.2 81.2 0 01-.11 4.08l-.11 1.77c-.15 2.38-.2 3.61-.22 5.04-.02 4.03.47 7.13 1.76 9.78zm-4.16-15.36l.04-.01c.25-.09.33-.14.41-.24l.22.17c-.12.17-.25.24-.52.33.06.51.29.7.68.65.36-.03.82-.25 1.2-.52.11-.08.22-.14.33-.2h.04l.08-1.38.04-.76c-.76.01-1.51.25-2.08.69a2 2 0 00-.56.7c-.14.24-.11.45.12.57z"/>
  <path fill="#fff" d="M48 69.66c0 .72-.14 1.5-.02 2.26.2.36.54.4.86.55.43-.07.8-.37.98-.79.1-.85-.03-1.67-.07-2.52a3.26 3.26 0 00-1.74.5zM51.86 69.72c.38 1.48-.5 3.91-1.96 1.92.1-.84-.01-1.66-.05-2.48-.02-.07 2 .46 2.01.56z"/>
  <path fill="#000" d="M47.84 70.32c.03-.42.04-.59.04-.8v-.1l.1-.03 1.72-.54v-.1l.17.04h.02v.02l1.93.5.07.01.03.07c.3.75.23 1.87-.15 2.56-.44.78-1.15.8-1.87-.1-.2.4-.59.69-1.02.76h-.04l-.04-.02-.2-.08c-.02 0-.02 0-.03-.02-.4-.14-.56-.25-.7-.51l-.01-.02v-.03a5.08 5.08 0 01-.06-.81c0-.21.02-.4.04-.8zm2.18-.52l.04.5c.03.51.03.9-.01 1.3.64.84 1.14.84 1.48.2.33-.58.4-1.58.15-2.24l-1.71-.45.05.7zm-1.9 2.08c.1.17.21.25.54.36l.03.02c.08.02.13.05.18.07.36-.07.68-.33.83-.68.04-.38.04-.77.01-1.29l-.04-.49a8.46 8.46 0 01-.04-.7l-1.49.46c0 .19-.01.35-.04.72-.02.38-.04.57-.04.8 0 .26.02.5.06.73z"/>
  <path fill="#fff" d="M60.06 63.55c-1.25 5.02-9.06 3.73-8.76-1.3.36-6.03 9.96-4.87 8.76 1.3z"/>
  <path fill="#000" d="M51.17 62.23c.08-1.46.7-2.6 1.74-3.3.93-.65 2.15-.9 3.36-.75 1.22.17 2.33.73 3.07 1.61.81.98 1.13 2.27.84 3.76l-.12-.03.12.03c-1.28 5.16-9.31 3.91-9.01-1.32zm8.77 1.3a4.1 4.1 0 00-.8-3.54 4.57 4.57 0 00-2.9-1.53 4.5 4.5 0 00-3.18.7 3.9 3.9 0 00-1.64 3.11c-.28 4.9 7.3 6.08 8.52 1.25z"/>
  <path fill="#000" d="M57.9 64.2c-.72 0-1.31-.66-1.31-1.48 0-.81.59-1.47 1.32-1.47.73 0 1.32.66 1.32 1.47 0 .82-.6 1.48-1.32 1.48z"/>
  <path fill="#fff" d="M57.3 63.44c-.16 0-.3-.17-.3-.38s.14-.38.3-.38c.18 0 .32.17.32.38 0 .2-.14.38-.31.38zM49.12 62.61c-.97 5.77-10.12 4.24-8.8-1.57 1.18-5.22 9.12-3.77 8.8 1.57z"/>
  <path fill="#000" d="M40.2 61.01c1.2-5.37 9.38-3.9 9.05 1.62v.01c-.45 2.72-2.8 4.1-5.4 3.66a4.83 4.83 0 01-2.95-1.67 4.14 4.14 0 01-.7-3.62zm.9 3.45a4.54 4.54 0 002.79 1.57c2.46.42 4.67-.88 5.1-3.43.3-5.2-7.4-6.58-8.55-1.53-.3 1.33-.05 2.5.67 3.4z"/>
  <path fill="#000" d="M46.87 63.83c-.72 0-1.3-.66-1.3-1.47 0-.81.58-1.47 1.3-1.47.71 0 1.3.66 1.3 1.47 0 .81-.59 1.47-1.3 1.47z"/>
  <path fill="#fff" d="M46.27 63.07c-.17 0-.3-.17-.3-.37 0-.21.13-.38.3-.38.16 0 .3.17.3.38 0 .2-.14.37-.3.37z"/>
  <path fill="#D8D8D8" d="M51.58 66.69c1.08.1 1.95 1.4 1.39 2.44-.74 1.37-2.38-.13-3.4.01-1.19.03-2.16 1.3-3.1.23-1.05-1.18.45-2.33 1.64-2.84l3.47.16z" style="mix-blend-mode:luminosity"/>
  <path fill="#231F20" d="M46.34 67.63c.36-.48 1-.91 1.7-1.2l.03-.02h.02l3.49.14c1.21.1 2.08 1.55 1.5 2.65-.23.42-.55.63-.97.66-.31.01-.64-.06-1.14-.24l-.17-.06c-.68-.24-.95-.3-1.22-.26h-.02c-.32 0-.6.1-1.11.3-.57.24-.75.31-1.04.34-.4.03-.73-.11-1.05-.46-.53-.6-.5-1.25-.02-1.85zm.23 1.65c.26.3.52.4.83.38.24-.01.4-.08.95-.3a3.1 3.1 0 011.2-.34c.34-.05.63.02 1.35.28l.16.05c1 .35 1.47.32 1.8-.3.5-.9-.26-2.14-1.28-2.24l-3.45-.14c-.65.28-1.23.7-1.58 1.13-.4.5-.42 1 .02 1.48z"/>
  <path fill="#000" d="M47.84 66.08c.42-1.6 3.96-1.36 3.88.55-.18 1.42-4.3 1.04-3.88-.55z"/>
  <path fill="orange" d="M229.3 79.43l-5.3-9.18-5.34 9.18L224 82.7l5.3-3.27zm-5.3 4.32l-5.34-3.27 5.34 7.77 5.34-7.77-5.34 3.27zM104.72 78.25A8.76 8.76 0 0096 69.53a8.72 8.72 0 108.72 8.72zm-5-1.23c-.13.84-.6 1.27-1.22 1.4.88.46 1.3 1.13.88 2.33-.53 1.47-1.73 1.61-3.38 1.3l-.39 1.58-.95-.25.4-1.54c-.22-.07-.57-.14-.78-.22l-.39 1.59-.95-.25.39-1.58a4.69 4.69 0 00-.67-.18l-1.27-.31.5-1.1s.7.18.66.18c.29.07.43-.1.46-.24l.63-2.5c.04 0 .07 0 .11.04-.04-.04-.07-.04-.1-.04l.42-1.8c.03-.2-.04-.45-.43-.56l-.7-.17.25-1.02 1.33.32v.03c.18.04.39.07.6.14l.39-1.58.98.25-.38 1.54c.24.04.49.1.73.18l.4-1.55.94.25-.39 1.58c1.23.39 2.11 1.02 1.94 2.18zm-2.17 3.06c.28-1.23-1.8-1.55-2.43-1.72l-.53 2.1c.64.18 2.64.81 2.96-.38zm.28-3.06c.28-1.13-1.44-1.4-2-1.51l-.46 1.9c.52.14 2.18.66 2.46-.4z"/>
  <path fill="#000" d="M147.9 74.79c-.3.45-.75.78-1.3 1-.57.23-1.22.34-1.96.34a3.57 3.57 0 01-3.36-2.04 5.25 5.25 0 01-.5-2.27v-.8c0-1.4.33-2.47.97-3.24a3.4 3.4 0 012.75-1.15c.96 0 1.74.25 2.33.74.58.5.94 1.2 1.08 2.1h-1.22c-.23-1.22-.96-1.84-2.19-1.84-.81 0-1.43.3-1.86.87a4.2 4.2 0 00-.63 2.49v.75c0 1.04.24 1.86.71 2.48.47.6 1.12.91 1.92.91.46 0 .86-.05 1.2-.15.35-.1.63-.27.85-.52V72.4h-2.13v-1h3.35v3.4zm1.55-2.29c0-.67.13-1.28.4-1.81.26-.54.63-.96 1.1-1.25.47-.29 1.01-.44 1.62-.44.93 0 1.69.33 2.26.98.58.64.87 1.5.87 2.58v.08c0 .67-.13 1.27-.39 1.8a2.9 2.9 0 01-2.73 1.69 2.9 2.9 0 01-2.27-.97 3.72 3.72 0 01-.86-2.58v-.08zm1.18.14c0 .76.18 1.38.53 1.84.35.46.83.69 1.42.69.6 0 1.07-.23 1.42-.7.35-.47.53-1.13.53-1.97a2.9 2.9 0 00-.54-1.83 1.7 1.7 0 00-1.43-.7c-.57 0-1.04.23-1.4.7a3.19 3.19 0 00-.53 1.97zm7.82 3.36h-1.17v-9.75h1.17V76zm6.13 0a2.45 2.45 0 01-.17-.72c-.55.56-1.2.85-1.95.85-.68 0-1.24-.2-1.67-.57a1.87 1.87 0 01-.65-1.46c0-.72.27-1.27.81-1.67.55-.4 1.31-.6 2.3-.6h1.14v-.53c0-.41-.12-.74-.37-.98-.24-.25-.6-.37-1.08-.37-.42 0-.77.1-1.06.32-.28.21-.42.47-.42.77h-1.18c0-.35.12-.68.36-1 .25-.32.58-.57.99-.76.42-.18.88-.28 1.38-.28.79 0 1.4.2 1.86.6.45.4.68.94.7 1.63v3.16c0 .63.08 1.14.24 1.5V76h-1.24zm-1.95-.9c.37 0 .71-.09 1.04-.28.33-.2.57-.44.72-.74v-1.41h-.92c-1.44 0-2.16.42-2.16 1.26 0 .37.13.66.37.86.25.21.56.31.95.31zm5.89-5.97l.03.87a2.5 2.5 0 012.06-1c1.45 0 2.18.82 2.2 2.46V76h-1.18v-4.54c0-.5-.12-.87-.34-1.1-.22-.24-.56-.36-1.03-.36-.38 0-.72.1-1 .3-.3.2-.52.48-.68.8V76h-1.17v-6.87h1.1zm5.78 3.38c0-1.07.25-1.92.74-2.55.5-.64 1.15-.96 1.97-.96.84 0 1.5.3 1.96.9l.06-.77h1.07v6.7c0 .9-.26 1.6-.8 2.1a2.9 2.9 0 01-2.11.77c-.5 0-.98-.1-1.46-.31a2.5 2.5 0 01-1.08-.87l.6-.7c.51.61 1.13.93 1.85.93.58 0 1.02-.17 1.34-.49.32-.32.48-.77.48-1.36v-.59c-.47.55-1.11.82-1.92.82-.8 0-1.46-.33-1.96-.97a4.26 4.26 0 01-.74-2.65zm1.18.13c0 .78.16 1.39.48 1.83.31.44.76.66 1.33.66.74 0 1.28-.34 1.63-1v-3.14c-.36-.66-.9-.99-1.62-.99-.57 0-1.02.22-1.34.67-.32.44-.48 1.1-.48 1.97zm-46.9 14.74V91h-1.22v-9.24h3.41c1.01 0 1.8.26 2.38.77.57.52.86 1.2.86 2.05 0 .9-.28 1.6-.84 2.08-.56.48-1.36.72-2.4.72h-2.19zm0-1h2.2c.65 0 1.15-.15 1.5-.45.34-.31.51-.76.51-1.33 0-.55-.17-1-.52-1.33-.34-.33-.82-.5-1.43-.5h-2.26v3.62zm6.4 1.12c0-.67.13-1.28.4-1.81a3 3 0 011.1-1.25c.47-.29 1.01-.44 1.62-.44.93 0 1.69.33 2.27.98.57.64.87 1.5.87 2.58v.08c0 .67-.13 1.27-.4 1.8a2.9 2.9 0 01-2.73 1.69 2.9 2.9 0 01-2.26-.97 3.72 3.72 0 01-.87-2.58v-.08zm1.18.14c0 .76.18 1.38.53 1.84.35.46.83.69 1.42.69.6 0 1.07-.23 1.42-.7.35-.47.53-1.13.53-1.97a2.9 2.9 0 00-.54-1.83 1.7 1.7 0 00-1.42-.7c-.58 0-1.05.23-1.4.7a3.2 3.2 0 00-.54 1.97zm6.24-.14c0-.67.13-1.28.39-1.81.27-.54.64-.96 1.1-1.25.48-.29 1.02-.44 1.62-.44.94 0 1.7.33 2.27.98.58.64.87 1.5.87 2.58v.08c0 .67-.13 1.27-.39 1.8a2.9 2.9 0 01-2.73 1.69 2.9 2.9 0 01-2.27-.97 3.72 3.72 0 01-.86-2.58v-.08zm1.18.14c0 .76.17 1.38.52 1.84.36.46.83.69 1.43.69s1.07-.23 1.42-.7c.35-.47.53-1.13.53-1.97a2.9 2.9 0 00-.54-1.83 1.7 1.7 0 00-1.43-.7c-.58 0-1.04.23-1.4.7a3.2 3.2 0 00-.53 1.97zM151.4 91h-1.18v-9.75h1.18V91zm10.52-4.27h-4.01V90h4.65v1h-5.87v-9.24h5.81v1h-4.59v2.97h4v1zm3.09-2.6l.03.87a2.5 2.5 0 012.06-1c1.45 0 2.19.82 2.2 2.46V91h-1.18v-4.54c0-.5-.12-.87-.34-1.1-.22-.24-.56-.36-1.03-.36-.38 0-.72.1-1 .3-.3.2-.52.48-.68.8V91h-1.17v-6.87h1.1zm5.78 3.38c0-1.07.25-1.92.74-2.55.5-.64 1.15-.96 1.97-.96.84 0 1.5.3 1.96.9l.06-.77h1.07v6.7c0 .9-.26 1.6-.8 2.1a2.9 2.9 0 01-2.11.77c-.5 0-.98-.1-1.46-.31a2.5 2.5 0 01-1.08-.87l.6-.7c.51.61 1.13.93 1.85.93.58 0 1.02-.17 1.34-.49.32-.32.48-.77.48-1.36v-.59c-.47.55-1.11.82-1.92.82-.8 0-1.46-.33-1.96-.97a4.26 4.26 0 01-.74-2.65zm1.18.13c0 .78.16 1.39.48 1.83.31.44.76.66 1.33.66.74 0 1.28-.34 1.63-1v-3.14c-.36-.66-.9-.99-1.62-.99-.57 0-1.02.22-1.34.67-.32.44-.48 1.1-.48 1.97zm7.68 3.36h-1.18v-6.87h1.18V91zm-1.28-8.69c0-.19.06-.35.18-.48.11-.13.29-.2.52-.2.22 0 .4.07.52.2s.17.29.17.48c0 .2-.05.35-.17.48-.12.12-.3.19-.52.19-.23 0-.4-.07-.52-.2a.69.69 0 01-.18-.47zm4.27 1.82l.04.87a2.5 2.5 0 012.06-1c1.45 0 2.18.82 2.2 2.46V91h-1.18v-4.54c0-.5-.12-.87-.34-1.1-.23-.24-.57-.36-1.04-.36-.38 0-.72.1-1 .3-.3.2-.51.48-.68.8V91h-1.17v-6.87h1.11zm8.91 7a3 3 0 01-2.27-.92 3.42 3.42 0 01-.88-2.45v-.22c0-.68.13-1.29.4-1.82.25-.54.62-.96 1.08-1.26.47-.3.98-.46 1.53-.46.89 0 1.58.3 2.08.89.5.59.74 1.43.74 2.52v.5h-4.65c.02.67.21 1.22.59 1.64.38.41.86.62 1.45.62.41 0 .76-.09 1.05-.26.29-.16.54-.39.76-.67l.71.56a2.89 2.89 0 01-2.59 1.33zm-.14-6.16c-.48 0-.88.17-1.2.52a2.5 2.5 0 00-.6 1.45h3.45v-.1c-.04-.59-.2-1.05-.49-1.38-.28-.33-.67-.49-1.16-.49z"/>
  <rect width="320" height="79" x=".5" y="40.5" stroke="#000" stroke-dasharray="4 6" rx="9.5"/>
  <path fill="#000" d="M159.65 39.35c.2.2.5.2.7 0l3.19-3.18a.5.5 0 00-.71-.7L160 38.28l-2.83-2.83a.5.5 0 00-.7.71l3.18 3.18zM159.5 25v14h1V25h-1zM228.65 135.35c.2.2.5.2.7 0l3.19-3.18a.5.5 0 00-.71-.7l-2.83 2.82-2.83-2.83a.5.5 0 00-.7.71l3.18 3.18zM228.5 121v14h1v-14h-1zM228.65 251.35c.2.2.5.2.7 0l3.19-3.18a.5.5 0 00-.71-.7l-2.83 2.82-2.83-2.83a.5.5 0 00-.7.71l3.18 3.18zM228.5 222v29h1v-29h-1z"/>
  <path fill="#000" d="M229.35 221.65a.5.5 0 00-.7 0l-3.19 3.18a.5.5 0 00.71.7l2.83-2.82 2.83 2.83a.5.5 0 00.7-.71l-3.18-3.18zm.15 29.35v-29h-1v29h1zM229.35 301.65a.5.5 0 00-.7 0l-3.19 3.18a.5.5 0 00.71.7l2.83-2.82 2.83 2.83a.5.5 0 00.7-.71l-3.18-3.18zm.15 29.35v-29h-1v29h1zM92.35 310.65a.5.5 0 00-.7 0l-3.19 3.18a.5.5 0 00.71.7l2.83-2.82 2.83 2.83a.5.5 0 00.7-.71l-3.18-3.18zM92.5 331v-20h-1v20h1zM92.35 120.65a.5.5 0 00-.7 0l-3.19 3.18a.5.5 0 00.71.7l2.83-2.82 2.83 2.83a.5.5 0 00.7-.71l-3.18-3.18zM92.5 161v-40h-1v40h1zM92.35 211.65a.5.5 0 00-.7 0l-3.19 3.18a.5.5 0 00.71.7l2.83-2.82 2.83 2.83a.5.5 0 00.7-.71l-3.18-3.18zM92.5 245v-33h-1v33h1zM102.06 120.5a.5.5 0 00-.56.44l-.5 4.48a.5.5 0 101 .1l.44-3.97 3.98.44a.5.5 0 10.1-.99l-4.46-.5zM206.38 250.7l-104-130-.78.62 104 130 .78-.62zM70.08 205.09l.17 1.22.26-1.1 1.83-6.45h1.03l1.78 6.45.26 1.11.2-1.24 1.43-6.32h1.23L76.02 208h-1.1L73 201.26l-.15-.7-.14.7-1.98 6.74h-1.1l-2.24-9.24h1.22l1.46 6.33zm12 3.04a3 3 0 01-2.27-.92 3.42 3.42 0 01-.87-2.45v-.22c0-.68.13-1.29.39-1.82.26-.54.62-.96 1.09-1.26.47-.3.97-.46 1.52-.46.9 0 1.59.3 2.08.89.5.59.75 1.43.75 2.52v.5H80.1c.02.67.22 1.22.6 1.64.37.41.86.62 1.44.62.41 0 .77-.09 1.05-.25.3-.17.54-.4.76-.68l.72.56a2.88 2.88 0 01-2.6 1.33zm-.14-6.16c-.47 0-.87.17-1.2.52a2.5 2.5 0 00-.59 1.45h3.44v-.1c-.03-.59-.2-1.05-.48-1.38-.29-.33-.68-.49-1.17-.49zm10 2.67a4.1 4.1 0 01-.72 2.54c-.48.63-1.13.95-1.94.95a2.4 2.4 0 01-2.01-.92l-.06.79h-1.08v-9.75h1.17v3.64a2.38 2.38 0 011.97-.88c.83 0 1.48.31 1.96.94.48.63.71 1.5.71 2.6v.1zm-1.17-.13c0-.8-.15-1.42-.46-1.85-.31-.44-.76-.66-1.34-.66-.77 0-1.33.36-1.67 1.08v2.97c.36.72.92 1.08 1.69 1.08.56 0 1-.22 1.31-.65.31-.44.47-1.1.47-1.97zm11.17 1.08h-3.87L97.2 208h-1.26l3.53-9.24h1.07l3.53 9.24h-1.25l-.88-2.41zm-3.5-1h3.14l-1.57-4.33-1.57 4.33zm8.1-.2V208h-1.22v-9.24h3.4c1.02 0 1.81.26 2.38.77.58.52.87 1.2.87 2.05 0 .9-.29 1.6-.85 2.08s-1.36.72-2.4.72h-2.18zm0-1h2.19c.65 0 1.15-.16 1.5-.46.34-.31.52-.75.52-1.34 0-.55-.18-.99-.52-1.31-.35-.34-.83-.5-1.43-.52h-2.26v3.63zm8.29 4.61h-1.22v-9.24h1.22V208z"/>
  <path fill="#A5A5A5" d="M118.51 176.35c-.15 0-.3.04-.44.11l-4.18 2.42a.88.88 0 00-.44.76v4.83c0 .31.17.6.44.76l1.1.63c.52.26.72.26.96.26.79 0 1.24-.48 1.24-1.3v-4.77c0-.06-.06-.11-.13-.11h-.52c-.07 0-.13.05-.13.11v4.76c0 .37-.38.74-1 .43l-1.14-.67c-.04-.02-.07-.06-.07-.1v-4.83c0-.04.03-.09.07-.11l4.18-2.41a.12.12 0 01.12 0l4.18 2.4c.04.03.07.08.07.12v4.83c0 .04-.02.1-.06.11l-4.19 2.41a.13.13 0 01-.12 0l-1.08-.64a.11.11 0 00-.1 0c-.3.17-.35.2-.63.29-.07.02-.17.06.03.18l1.4.82a.87.87 0 00.88 0l4.18-2.4a.88.88 0 00.44-.77v-4.82c0-.32-.17-.61-.44-.77l-4.18-2.42a.87.87 0 00-.44-.1zm1.12 3.45c-1.2 0-1.9.51-1.9 1.35 0 .92.7 1.17 1.85 1.28 1.37.14 1.47.34 1.47.6 0 .47-.37.67-1.25.67-1.1 0-1.35-.27-1.43-.82-.01-.06-.06-.11-.12-.11h-.54a.13.13 0 00-.09.04.13.13 0 00-.03.08c0 .7.38 1.54 2.2 1.54 1.33 0 2.1-.52 2.1-1.43 0-.9-.62-1.15-1.9-1.31-1.3-.18-1.43-.26-1.43-.56 0-.26.1-.6 1.07-.6.86 0 1.18.2 1.3.77.02.06.06.1.12.1h.55c.03 0 .06-.02.08-.04.03-.03.04-.06.04-.1-.08-.99-.75-1.46-2.09-1.46z" style="mix-blend-mode:luminosity"/>
  <path fill="#404137" d="M93.9 170.03c-.04 0-.09.01-.13.03a.27.27 0 00-.13.24v6.8c0 .06-.03.12-.09.15a.18.18 0 01-.19 0l-1.1-.64a.53.53 0 00-.54 0l-4.43 2.56a.54.54 0 00-.27.47v5.12a.53.53 0 00.27.46l4.43 2.56a.53.53 0 00.53 0l4.44-2.56a.53.53 0 00.26-.46V172c0-.2-.1-.38-.27-.47l-2.64-1.47a.25.25 0 00-.13-.03zm-28.52 6.39a.5.5 0 00-.24.06l-4.43 2.56a.54.54 0 00-.27.46l.01 6.87c0 .1.05.19.13.23.09.05.19.05.27 0l2.63-1.5c.17-.1.28-.28.28-.47v-3.2c0-.2.1-.38.26-.47l1.12-.65a.53.53 0 01.53 0l1.12.65c.17.1.27.27.27.46v3.2c0 .2.11.37.28.47l2.63 1.51c.08.05.18.05.26 0a.27.27 0 00.14-.23v-6.87a.53.53 0 00-.26-.46l-4.44-2.56a.5.5 0 00-.24-.06h-.05zm39.85.06c-.1 0-.19.03-.27.07l-4.43 2.56a.53.53 0 00-.27.46v5.12c0 .2.1.37.27.46l4.4 2.51c.16.1.36.1.53 0l2.66-1.48a.27.27 0 00.14-.23c0-.1-.05-.18-.13-.23l-4.46-2.56a.29.29 0 01-.14-.24v-1.6c0-.1.06-.18.14-.23l1.39-.8a.26.26 0 01.26 0l1.39.8c.04.03.08.06.1.1.02.04.03.09.03.13v1.27a.27.27 0 00.4.23l2.66-1.55c.16-.1.27-.27.27-.46v-1.24a.53.53 0 00-.27-.46l-4.4-2.56a.52.52 0 00-.27-.07zm-13.26 3.82c.02 0 .05 0 .07.02l1.52.88c.04.02.07.07.07.11v1.76c0 .05-.03.1-.07.12l-1.52.88a.14.14 0 01-.13 0l-1.52-.88a.14.14 0 01-.07-.12v-1.76c0-.04.03-.09.07-.11l1.52-.88a.12.12 0 01.06-.02z"/>
  <path fill="#A5A5A5" d="M78.7 176.45c-.1 0-.18.03-.27.08L74 179.06a.55.55 0 00-.27.48v5.11a.53.53 0 00.27.47l4.43 2.56a.53.53 0 00.54 0l4.43-2.56a.53.53 0 00.27-.47v-5.11c0-.2-.1-.38-.27-.48l-4.43-2.54a.52.52 0 00-.27-.08zm26.52 4.57l-.06.01-.85.5a.09.09 0 00-.04.03.1.1 0 00-.01.06v.97c0 .04.02.07.05.1l.85.48a.1.1 0 00.05.02.1.1 0 00.05-.02l.85-.49a.1.1 0 00.06-.09v-.97a.1.1 0 00-.06-.1l-.85-.49h-.04z" style="mix-blend-mode:luminosity"/>
  <path fill="#000" d="M198.47 289.76h-2.97V298h-1.22v-8.24h-2.96v-1h7.15v1zm3.4 8.37a3 3 0 01-2.27-.92 3.42 3.42 0 01-.88-2.45v-.22c0-.68.13-1.29.39-1.82.26-.54.62-.96 1.09-1.26.47-.3.98-.45 1.52-.45.9 0 1.59.29 2.09.88.49.59.74 1.43.74 2.52v.5h-4.66c.02.67.22 1.22.6 1.64.38.41.86.62 1.44.62.42 0 .77-.09 1.06-.25.28-.18.53-.4.75-.68l.72.56a2.88 2.88 0 01-2.6 1.33zm-.15-6.16c-.47 0-.87.17-1.2.52a2.5 2.5 0 00-.59 1.45h3.44v-.1c-.03-.59-.2-1.05-.48-1.38-.29-.32-.68-.49-1.17-.49zm5.47 6.03H206v-9.75h1.18V298zm4.73.13a3 3 0 01-2.27-.92 3.42 3.42 0 01-.88-2.45v-.22c0-.68.13-1.29.4-1.82.25-.54.62-.96 1.08-1.26.47-.3.98-.45 1.53-.45.89 0 1.58.29 2.08.88.5.59.74 1.43.74 2.52v.5h-4.65c.02.67.21 1.22.59 1.64.38.41.86.62 1.45.62.41 0 .76-.09 1.05-.25.29-.18.54-.4.76-.68l.71.56a2.88 2.88 0 01-2.59 1.33zm-.14-6.16c-.48 0-.87.17-1.2.52a2.5 2.5 0 00-.6 1.45h3.45v-.1c-.04-.59-.2-1.05-.49-1.38-.28-.32-.67-.49-1.16-.49zm3.9 2.54c0-1.07.25-1.92.75-2.55.5-.64 1.15-.95 1.97-.95.84 0 1.49.3 1.96.88l.06-.76h1.07v6.7c0 .9-.27 1.6-.8 2.1a2.9 2.9 0 01-2.11.77c-.5 0-.98-.1-1.46-.31a2.5 2.5 0 01-1.08-.87l.6-.7c.51.62 1.13.93 1.85.93.57 0 1.02-.17 1.34-.49.32-.32.48-.77.48-1.36v-.59c-.47.55-1.11.82-1.93.82-.8 0-1.45-.33-1.95-.97a4.26 4.26 0 01-.74-2.65zm1.19.13c0 .78.16 1.39.47 1.83.32.44.77.66 1.34.66.74 0 1.28-.34 1.63-1v-3.14c-.36-.66-.9-.99-1.62-.99-.57 0-1.02.22-1.34.67-.32.44-.48 1.1-.48 1.97zm9.72-2.45a3.46 3.46 0 00-.58-.05c-.77 0-1.3.33-1.57.99V298h-1.17v-6.87h1.14l.02.8c.38-.62.93-.93 1.64-.93.22 0 .4.04.52.1v1.09zm5.07 5.81a2.45 2.45 0 01-.17-.72c-.54.56-1.2.85-1.95.85-.68 0-1.23-.2-1.67-.57a1.87 1.87 0 01-.65-1.46c0-.72.27-1.27.81-1.67.55-.4 1.32-.6 2.3-.6h1.14v-.53c0-.41-.12-.74-.36-.98-.25-.25-.61-.37-1.09-.37-.42 0-.77.1-1.05.32-.29.21-.43.47-.43.77h-1.18c0-.35.12-.68.36-1 .25-.32.58-.57 1-.76.41-.18.87-.27 1.37-.27.8 0 1.41.2 1.86.6.45.38.68.93.7 1.62v3.16c0 .63.08 1.14.24 1.5v.11h-1.23zm-1.95-.9c.37 0 .72-.09 1.05-.28.33-.2.57-.44.71-.74v-1.41h-.92c-1.44 0-2.15.42-2.15 1.26 0 .37.12.66.36.86.25.21.56.31.95.31zm5.88-5.97l.03.76c.5-.59 1.19-.88 2.04-.88.96 0 1.62.36 1.97 1.1.22-.33.52-.6.88-.8.37-.2.8-.3 1.3-.3 1.51 0 2.28.8 2.3 2.39v4.6h-1.17v-4.53c0-.5-.11-.86-.34-1.1-.22-.25-.6-.37-1.13-.37-.43 0-.8.13-1.08.4-.3.25-.46.6-.5 1.04V298h-1.19v-4.5c0-1-.48-1.5-1.46-1.5-.77 0-1.3.33-1.58.99V298h-1.18v-6.87h1.11zm13.7 6.87v-9.24h3.03c1 0 1.76.2 2.26.62.5.42.76 1.03.76 1.84 0 .43-.12.81-.37 1.15a2.4 2.4 0 01-1 .77c.5.14.9.4 1.18.8.3.39.44.85.44 1.4 0 .82-.27 1.48-.8 1.95-.54.47-1.3.71-2.29.71h-3.2zm1.23-4.32V297h2c.58 0 1.02-.14 1.35-.44.33-.3.5-.7.5-1.21 0-1.12-.61-1.67-1.82-1.67h-2.03zm0-.98h1.84c.53 0 .96-.13 1.27-.4.33-.27.49-.63.49-1.09 0-.5-.15-.87-.45-1.1-.3-.23-.74-.35-1.35-.35h-1.8v2.94zm6.38 1.8c0-.67.13-1.28.4-1.81a3 3 0 011.1-1.25c.48-.29 1.01-.44 1.62-.44.94 0 1.69.33 2.27.98.57.64.86 1.5.86 2.58v.08c0 .67-.12 1.27-.38 1.8a2.9 2.9 0 01-2.74 1.69 2.9 2.9 0 01-2.26-.97 3.73 3.73 0 01-.87-2.58v-.08zm1.18.14c0 .76.18 1.38.53 1.84.36.46.83.69 1.42.69.6 0 1.07-.23 1.42-.7.36-.47.53-1.13.53-1.97a2.9 2.9 0 00-.54-1.83 1.7 1.7 0 00-1.42-.7c-.58 0-1.05.23-1.4.7a3.18 3.18 0 00-.54 1.97zm8.14-5.17v1.66h1.28v.91h-1.28v4.26c0 .27.06.48.17.62.12.14.31.2.59.2.13 0 .32-.02.56-.07v.95c-.31.08-.61.13-.9.13-.53 0-.93-.16-1.2-.48-.26-.32-.4-.77-.4-1.35v-4.26h-1.24v-.9h1.25v-1.67h1.17z"/>
  <path fill="#A5A5A5" d="M255.51 266.35c-.15 0-.3.04-.44.11l-4.18 2.42a.88.88 0 00-.43.76v4.83c0 .31.16.6.43.76l1.1.63c.52.26.72.26.96.26.79 0 1.24-.48 1.24-1.3v-4.77c0-.06-.06-.11-.13-.11h-.52c-.07 0-.13.05-.13.11v4.76c0 .37-.38.74-1 .43l-1.14-.67c-.04-.02-.07-.06-.07-.1v-4.83c0-.04.03-.09.07-.11l4.18-2.41a.12.12 0 01.12 0l4.18 2.4c.04.03.07.08.07.12v4.83c0 .04-.02.1-.06.11l-4.19 2.41a.13.13 0 01-.12 0l-1.07-.64a.11.11 0 00-.11 0c-.3.17-.35.2-.63.29-.07.02-.17.06.03.18l1.4.82a.87.87 0 00.88 0l4.18-2.4a.88.88 0 00.44-.77v-4.83c0-.3-.17-.6-.44-.76l-4.18-2.42a.87.87 0 00-.44-.1zm1.12 3.45c-1.2 0-1.9.51-1.9 1.35 0 .92.7 1.17 1.85 1.28 1.37.14 1.47.34 1.47.6 0 .47-.37.67-1.25.67-1.1 0-1.35-.27-1.43-.82-.01-.06-.06-.11-.12-.11h-.54a.13.13 0 00-.09.04.13.13 0 00-.03.08c0 .7.38 1.54 2.2 1.54 1.33 0 2.1-.52 2.1-1.43 0-.9-.62-1.14-1.9-1.31-1.3-.18-1.43-.26-1.43-.56 0-.26.1-.6 1.07-.6.86 0 1.18.2 1.3.77.02.06.06.1.12.1h.55c.03 0 .06-.02.08-.04.03-.03.04-.06.04-.1-.09-.99-.75-1.46-2.09-1.46z" style="mix-blend-mode:luminosity"/>
  <path fill="#404137" d="M230.9 260.03a.26.26 0 00-.22.13.27.27 0 00-.04.14v6.8c0 .06-.03.12-.09.15a.18.18 0 01-.19 0l-1.1-.64a.53.53 0 00-.54 0l-4.44 2.56a.55.55 0 00-.26.47v5.12a.53.53 0 00.26.46l4.44 2.56a.53.53 0 00.53 0l4.44-2.56a.54.54 0 00.26-.46V262c0-.2-.1-.38-.27-.47l-2.64-1.47a.25.25 0 00-.13-.03zm-28.52 6.39a.5.5 0 00-.24.06l-4.43 2.56a.54.54 0 00-.27.46l.01 6.87c0 .1.05.19.13.23.09.05.19.05.27 0l2.63-1.5c.17-.1.28-.28.28-.47v-3.2c0-.2.1-.38.26-.47l1.12-.65a.53.53 0 01.54 0l1.11.65c.17.1.27.27.27.46v3.2c0 .2.11.37.28.47l2.63 1.51c.08.05.18.05.26 0a.27.27 0 00.14-.23v-6.87a.53.53 0 00-.27-.46l-4.43-2.56a.5.5 0 00-.23-.06h-.06zm39.85.06c-.1 0-.19.02-.27.07l-4.44 2.56a.53.53 0 00-.26.46v5.12c0 .2.1.37.27.46l4.4 2.51c.16.1.36.1.53 0l2.66-1.48a.27.27 0 00.14-.23c0-.1-.04-.18-.13-.23l-4.46-2.56a.29.29 0 01-.14-.24v-1.6c0-.1.06-.18.14-.23l1.39-.8a.26.26 0 01.26 0l1.39.8.1.1c.02.04.03.09.03.13v1.26a.27.27 0 00.4.24l2.66-1.55c.16-.1.27-.27.27-.46v-1.24a.53.53 0 00-.27-.46l-4.4-2.56a.52.52 0 00-.27-.07zm-13.26 3.82c.02 0 .05 0 .07.02l1.52.88c.04.02.07.07.07.11v1.76c0 .05-.03.1-.07.12l-1.52.88a.14.14 0 01-.13 0l-1.52-.88a.14.14 0 01-.07-.12v-1.76c0-.04.03-.09.07-.11l1.52-.88a.12.12 0 01.06-.02z"/>
  <path fill="#A5A5A5" d="M215.7 266.45c-.1 0-.18.03-.26.07l-4.44 2.56a.55.55 0 00-.27.47v5.11a.53.53 0 00.27.47l4.44 2.56a.53.53 0 00.53 0l4.43-2.56a.53.53 0 00.27-.46v-5.12c0-.2-.1-.38-.27-.48l-4.43-2.55a.52.52 0 00-.27-.07zm26.52 4.57l-.06.01-.85.5a.09.09 0 00-.04.04.1.1 0 00-.01.05v.97c0 .04.02.07.05.1l.85.48a.1.1 0 00.05.01.1.1 0 00.05 0l.86-.5a.1.1 0 00.05-.09v-.97a.1.1 0 00-.05-.1l-.86-.49h-.04z" style="mix-blend-mode:luminosity"/>
  <path fill="#000" d="M218.67 342h-4v11h-2.2v-11h-3.96v-1.8h10.16v1.8zm4.87 11.18a4.44 4.44 0 01-3.3-1.28c-.83-.85-1.25-2-1.25-3.4v-.27c0-.95.18-1.8.55-2.54a4.08 4.08 0 013.76-2.37c1.3 0 2.3.4 3 1.23.7.83 1.06 2 1.06 3.51v.86h-6.22c.07.79.33 1.4.79 1.87.46.45 1.04.68 1.74.68.98 0 1.77-.4 2.39-1.19l1.15 1.1c-.38.57-.9 1.01-1.53 1.33-.63.31-1.34.47-2.14.47zm-.25-8.15c-.59 0-1.06.2-1.42.61a3.2 3.2 0 00-.69 1.72h4.07v-.16a2.57 2.57 0 00-.57-1.62c-.34-.37-.8-.55-1.4-.55zm8 7.97h-2.13v-13.5h2.14V353zm6.53.18a4.44 4.44 0 01-3.3-1.28c-.84-.85-1.26-2-1.26-3.4v-.27c0-.95.19-1.8.55-2.54a4.08 4.08 0 013.76-2.37c1.3 0 2.3.4 3 1.23.7.83 1.06 2 1.06 3.51v.86h-6.21c.06.79.32 1.4.78 1.87.46.45 1.04.68 1.74.68.98 0 1.78-.4 2.4-1.19l1.14 1.1a3.86 3.86 0 01-1.53 1.33c-.63.31-1.34.47-2.13.47zm-.26-8.15c-.58 0-1.06.2-1.42.61a3.2 3.2 0 00-.69 1.72h4.07v-.16a2.57 2.57 0 00-.57-1.62c-.33-.37-.8-.55-1.39-.55zm5.36 3.15c0-1.48.35-2.66 1.04-3.54a3.35 3.35 0 012.77-1.33c1.08 0 1.94.38 2.56 1.14l.1-.96h1.92v9.22c0 1.25-.4 2.23-1.17 2.95a4.42 4.42 0 01-3.14 1.08c-.7 0-1.38-.14-2.05-.44a3.6 3.6 0 01-1.5-1.13l1-1.28a3.05 3.05 0 002.43 1.17c.7 0 1.27-.2 1.68-.58.4-.38.61-.95.61-1.7v-.63a3.14 3.14 0 01-2.46 1.03 3.35 3.35 0 01-2.73-1.33 5.76 5.76 0 01-1.06-3.68zm2.13.18c0 .95.2 1.7.58 2.26.4.54.94.82 1.63.82.86 0 1.5-.37 1.91-1.11v-4.19a2.03 2.03 0 00-1.9-1.08c-.7 0-1.25.28-1.64.84a4.31 4.31 0 00-.58 2.46zm13.44-2.92a5.38 5.38 0 00-.87-.07c-.98 0-1.64.38-1.98 1.13v6.5h-2.13v-9.51h2.03l.06 1.06a2.4 2.4 0 012.14-1.24c.3 0 .56.05.76.13l-.01 2zm6.77 7.56c-.1-.18-.18-.48-.25-.89a3.33 3.33 0 01-2.5 1.07c-.95 0-1.73-.28-2.33-.82-.6-.55-.9-1.22-.9-2.02a2.7 2.7 0 011.12-2.33 5.47 5.47 0 013.23-.82h1.31v-.62c0-.5-.14-.89-.41-1.18-.28-.3-.7-.45-1.26-.45-.49 0-.88.12-1.2.37-.3.24-.46.55-.46.92h-2.14c0-.52.18-1 .52-1.46.35-.45.82-.81 1.4-1.07.6-.26 1.27-.39 2-.39 1.12 0 2 .29 2.67.85.66.55 1 1.34 1.02 2.35v4.3c0 .85.12 1.53.36 2.04v.15h-2.18zm-2.35-1.54c.42 0 .82-.1 1.19-.3.37-.21.65-.49.84-.83v-1.8h-1.15c-.8 0-1.39.14-1.79.42-.4.27-.6.66-.6 1.17 0 .4.14.74.41.98.28.24.64.36 1.1.36zm8.41-7.97l.06 1a3.42 3.42 0 012.75-1.18c1.27 0 2.14.5 2.6 1.46a3.38 3.38 0 012.92-1.46c1.05 0 1.83.3 2.34.88.52.57.78 1.43.8 2.56V353h-2.14v-6.19c0-.6-.13-1.04-.4-1.32-.26-.29-.7-.43-1.3-.43-.5 0-.9.13-1.2.4-.3.26-.52.6-.65 1.02l.01 6.52h-2.13v-6.26c-.03-1.12-.6-1.68-1.72-1.68-.85 0-1.46.35-1.82 1.05V353h-2.13v-9.51h2.01z"/>
  <path fill="orange" d="M186 334.38a11.62 11.62 0 100 23.24 11.62 11.62 0 000-23.25zm5.67 7.96l-1.87 9c-.14.66-.52.8-1.08.52l-2.9-2.16-1.41 1.36c-.14.14-.28.28-.57.28l.2-2.95 5.38-4.87c.24-.2-.04-.33-.37-.14l-6.66 4.21-2.86-.89c-.6-.18-.6-.65.14-.93l11.2-4.32c.52-.18.99.14.8.9z"/>
  <g clip-path="url(#clip1)">
    <path fill="#5D5D5D" d="M64.12 278.05v-15.28a1.36 1.36 0 01.77-1.3l26.34-15.22c.48-.3 1-.35 1.48-.06l26.47 15.28a1.41 1.41 0 01.7 1.3v30.49a1.42 1.42 0 01-.7 1.3L96.44 307.7c-1.19.72-2.4 1.4-3.61 2.07-.53.3-1.07.3-1.6 0l-26.4-15.21c-.48-.3-.71-.65-.71-1.25v-15.27z" style="mix-blend-mode:luminosity"/>
    <path fill="#FEFEFE" d="M82.76 272.36v17.8c0 2.01-1.6 3.79-3.73 3.73a3.48 3.48 0 01-3.47-3.5v-24.72c0-1.66 1-2.84 2.3-3.37 1.31-.54 2.61-.42 3.92 0a6.18 6.18 0 013 2.07l15.74 18.89c.06.06.12.18.24.3v-18c0-1.9 1.3-3.38 3.14-3.56a3.58 3.58 0 014.08 3.08v25.2c0 1.4-.65 2.43-1.83 3.08a5.2 5.2 0 01-2.84.53 6.46 6.46 0 01-3.91-1.66c-.6-.53-1-1.18-1.54-1.77l-14.98-17.94c0-.06-.06-.12-.12-.18v.02z"/>
  </g>
  <path fill="#000" d="M102.65 349.84l1.97-9.64h2.2l-2.94 12.8h-2.13l-2.44-9.34-2.48 9.34h-2.14l-2.95-12.8h2.2l2 9.62 2.43-9.62h1.87l2.41 9.64zm9.5 3.34a4.44 4.44 0 01-3.3-1.28c-.83-.85-1.25-2-1.25-3.4v-.27c0-.95.18-1.8.55-2.54a4.08 4.08 0 013.76-2.37c1.3 0 2.3.4 3 1.23.7.83 1.06 2 1.06 3.51v.86h-6.21c.06.79.32 1.4.78 1.87.46.45 1.04.68 1.74.68.98 0 1.77-.4 2.39-1.19l1.15 1.1a3.87 3.87 0 01-1.53 1.33c-.63.31-1.34.47-2.14.47zm-.25-8.15c-.59 0-1.06.2-1.42.61a3.2 3.2 0 00-.69 1.72h4.07v-.16a2.57 2.57 0 00-.57-1.62c-.34-.37-.8-.55-1.39-.55zm14.08 3.31a5.7 5.7 0 01-1 3.53 3.2 3.2 0 01-2.7 1.3 3.1 3.1 0 01-2.61-1.2l-.1 1.03h-1.94v-13.5h2.14v4.9a3.1 3.1 0 012.48-1.09c1.16 0 2.08.44 2.74 1.3.66.86.99 2.06.99 3.6v.13zm-2.14-.18c0-1.03-.18-1.8-.54-2.32-.36-.52-.9-.78-1.58-.78-.93 0-1.58.4-1.95 1.22v3.92a2 2 0 001.97 1.24 1.8 1.8 0 001.54-.75c.37-.5.55-1.25.56-2.26v-.27z"/>
  <path fill="orange" d="M63.52 345.22a6.05 6.05 0 016.23-3.94l9.6.52a11.37 11.37 0 00-4.58-4.83 11.44 11.44 0 00-14.82 2.76l3.57 5.49zm1.54 1.78a3.9 3.9 0 003.94 3.94 3.9 3.9 0 003.9-3.94c0-2.16-1.74-3.9-3.9-3.9a3.9 3.9 0 00-3.94 3.9zm14.77-4.17l-6.56.33a6.19 6.19 0 01.32 7.4l-5.25 8.06c2.16.15 4.41-.37 6.43-1.54 5.06-2.9 7.07-9 5.06-14.25zm-16.22 6.42l-4.36-8.58a11.28 11.28 0 00-1.88 6.33c0 5.81 4.22 10.64 9.8 11.48l3-5.8a6.23 6.23 0 01-6.56-3.43z"/>
  <defs>
    <clipPath id="clip0">
      <path fill="#fff" d="M197 136h64v64h-64z"/>
    </clipPath>
    <clipPath id="clip1">
      <path fill="#fff" d="M60 246h64v64H60z"/>
    </clipPath>
  </defs>
</svg>