<svg xmlns="http://www.w3.org/2000/svg" fill="none" viewBox="0 0 224 48">
  <defs/>
  <g clip-path="url(#clip0)">
    <path fill="url(#paint0_linear)" d="M199.42 0H24.58C11 0 0 10.75 0 24s11 24 24.58 24h174.84C213 48 224 37.25 224 24S213 0 199.42 0z"/>
    <g filter="url(#filter0_d)">
      <path fill="#fff" d="M42.32 30.68a7.32 7.32 0 01-5.28 2.22 8.86 8.86 0 01-6.36-2.73 9.8 9.8 0 01-1.92-10.32 9.3 9.3 0 014.87-4.96c1.15-.5 2.4-.75 3.66-.74 1.77 0 3.3.36 4.57 1.1a7.15 7.15 0 012.86 2.94l-2.74 1.97a5.02 5.02 0 00-2.02-2.1 5.63 5.63 0 00-2.8-.73 4.9 4.9 0 00-3.91 1.85c-.48.59-.86 1.26-1.1 1.97a7.2 7.2 0 00.04 4.8c.27.73.66 1.4 1.18 1.97a5.18 5.18 0 004 1.8c1.83 0 3.48-.84 4.95-2.53v-1.3h-3.8v-2.63h6.84v9.5h-3.04v-2.08zm18.83 2.09h-3.58V25.1c0-1.07-.2-1.87-.6-2.38-.42-.51-1-.77-1.74-.77-.35 0-.7.08-1.01.21-.37.14-.71.34-1.02.59-.33.26-.62.56-.88.9-.26.34-.46.73-.58 1.14v7.97h-3.58V13.76h3.58v7.89a5.32 5.32 0 012.09-2.04c.9-.49 1.9-.73 2.92-.72.9 0 1.64.15 2.21.45.55.29 1 .7 1.34 1.22.32.52.55 1.1.66 1.71.13.66.19 1.32.19 1.98v8.52zm9.57.26a7.83 7.83 0 01-3.07-.58 6.9 6.9 0 01-4.26-6.48c0-.92.16-1.84.5-2.7a6.82 6.82 0 013.76-3.8c.97-.4 2.02-.6 3.07-.58a7.73 7.73 0 013.05.57 6.93 6.93 0 013.75 3.8 7.27 7.27 0 010 5.4 6.75 6.75 0 01-3.73 3.8c-.98.39-2.02.58-3.07.57zm-3.65-7.06c-.01.56.08 1.12.28 1.65.17.48.43.91.77 1.3a3.45 3.45 0 002.6 1.14 3.47 3.47 0 002.6-1.15c.34-.38.6-.82.77-1.3.2-.53.29-1.1.28-1.66 0-.56-.09-1.12-.28-1.65a3.99 3.99 0 00-.77-1.3 3.45 3.45 0 00-4.04-.83c-.44.2-.84.5-1.16.86-.34.38-.6.82-.77 1.3-.2.53-.29 1.08-.28 1.64zm18.63 7.06c-1.17 0-2.33-.19-3.44-.55a8.45 8.45 0 01-2.88-1.56l1.34-2.19c.77.55 1.6 1 2.5 1.34.76.3 1.58.45 2.4.46.71 0 1.27-.13 1.68-.4a1.27 1.27 0 00.43-1.76c-.13-.19-.32-.33-.53-.42-.76-.32-1.55-.58-2.35-.78-.9-.24-1.68-.48-2.32-.7a6.01 6.01 0 01-1.55-.77c-.36-.26-.65-.6-.85-1a4.16 4.16 0 01.15-3.22 4.1 4.1 0 011.16-1.4c.52-.4 1.11-.71 1.74-.9.7-.22 1.44-.32 2.18-.32 1 0 2 .14 2.94.45.93.3 1.8.79 2.52 1.43l-1.44 2.1a8.42 8.42 0 00-2.06-1.14 5.77 5.77 0 00-1.99-.36c-.53-.02-1.06.1-1.52.36-.4.24-.61.63-.61 1.17-.01.21.04.42.14.6.12.18.28.32.47.42.27.14.55.26.84.35.35.11.78.23 1.3.35.95.24 1.78.49 2.46.73.6.2 1.16.48 1.68.83.4.28.73.65.96 1.08.22.46.32.97.3 1.47 0 1.34-.5 2.4-1.51 3.17a6.66 6.66 0 01-4.14 1.16zm16.35-.97c-.58.25-1.16.45-1.76.63-.71.2-1.45.31-2.19.31-.47 0-.94-.06-1.4-.18a2.87 2.87 0 01-1.93-1.63 3.7 3.7 0 01-.3-1.55v-7.83h-1.83v-2.69h1.84V14.7h3.57v4.42h2.93v2.69h-2.93v6.66c0 .49.13.83.39 1.03.27.2.6.3.94.3.37 0 .74-.06 1.1-.18l.85-.32.72 2.76zm8.16-17.73h3.38l2.13 6.12 2.14-6.12h3.41l-3.22 8.41 2.4 5.91 5.35-14.37h4l-7.7 18.49H119L115.72 25l-3.27 7.76h-3.1l-7.65-18.49h3.95l5.38 14.37 2.35-5.9-3.17-8.42zm28.53 7.81c-1 0-2 .21-2.91.62-.81.34-1.47.97-1.84 1.75v8.26h-3.57V19.12h3.28v2.92a6.22 6.22 0 013.16-2.88c.37-.14.76-.21 1.16-.22h.44l.28.03v3.17zm2 10.63V19.12h3.57v13.65h-3.57zm0-15.55v-3.46h3.57v3.46h-3.57zm15.17 14.84c-.58.25-1.16.45-1.76.63-.71.2-1.45.31-2.19.31-.47 0-.94-.06-1.4-.18a2.86 2.86 0 01-1.93-1.63c-.21-.49-.31-1.02-.3-1.55v-7.83h-1.84v-2.69h1.84V14.7h3.58v4.42h2.93v2.69h-2.93v6.66c0 .49.13.83.38 1.03.27.2.6.3.95.3.37 0 .74-.06 1.1-.18l.84-.32.73 2.76zm1.86.7V19.13h3.57v13.65h-3.57zm0-15.54v-3.46h3.57v3.46h-3.57zm19.78 15.55h-3.57V25.1c0-1.1-.2-1.89-.58-2.4a1.92 1.92 0 00-1.63-.75c-.38 0-.75.08-1.1.21a4.82 4.82 0 00-1.95 1.48c-.25.35-.45.74-.58 1.15v7.97h-3.57V19.12h3.23v2.53a5.25 5.25 0 012.24-2.03 7.33 7.33 0 013.3-.73c.87 0 1.58.16 2.13.47.53.29.97.71 1.28 1.22.32.53.53 1.11.63 1.72.12.64.18 1.3.18 1.95v8.52zm8.6.07a5.87 5.87 0 01-4.56-2.04c-.56-.65-1-1.4-1.29-2.2a7.71 7.71 0 01-.45-2.66c-.01-.94.15-1.87.48-2.76.3-.81.75-1.57 1.33-2.23a6.08 6.08 0 014.7-2.06c1-.02 1.98.22 2.85.71a6.12 6.12 0 012.02 1.92v-2.4h3.12v13a5.96 5.96 0 01-2.2 4.74 7.26 7.26 0 01-2.45 1.27c-1 .3-2.05.45-3.1.44a8.93 8.93 0 01-3.86-.74 7.78 7.78 0 01-2.68-2.1l1.95-1.84a5.51 5.51 0 002.01 1.5 6.2 6.2 0 004.16.33c.5-.14.95-.37 1.35-.69.4-.32.71-.73.92-1.2a4.1 4.1 0 00.33-1.71V30.4a4.67 4.67 0 01-1.95 1.8c-.83.43-1.75.65-2.69.64zm1.2-2.78c.37 0 .75-.06 1.11-.18a4.03 4.03 0 001.79-1.23c.22-.26.4-.56.53-.88V24.5a4.25 4.25 0 00-1.5-1.92 3.65 3.65 0 00-2.15-.73c-.52-.01-1.04.11-1.5.35a3.7 3.7 0 00-1.14.94c-.33.4-.58.85-.74 1.34-.16.5-.25 1.03-.25 1.56a4.14 4.14 0 001.1 2.84 3.66 3.66 0 002.73 1.17z"/>
    </g>
    <g filter="url(#filter1_d)">
      <path fill="#fff" d="M144.09 43.57v-1.5h1.18v1.5h-1.18zm5.6.06a3.52 3.52 0 01-2.67-1.17 3.85 3.85 0 01-.74-4.02 3.91 3.91 0 011.96-2.03 3.58 3.58 0 013 .02 3.75 3.75 0 011.9 2.07 3.73 3.73 0 01-3.44 5.13zm-2.2-3.77c0 .32.05.63.15.93.1.3.24.56.44.8a2.04 2.04 0 001.63.76 2.02 2.02 0 001.64-.78c.2-.24.34-.51.43-.8a2.9 2.9 0 00-.01-1.84c-.1-.28-.25-.55-.44-.8a2.09 2.09 0 00-1.62-.74 2.06 2.06 0 00-1.65.77 2.9 2.9 0 00-.57 1.7zm12.13 3.71h-1.44V40.5c0-.44-.08-.76-.23-.96a.77.77 0 00-.66-.3c-.15 0-.3.02-.43.08-.16.06-.3.14-.43.23-.13.1-.25.23-.36.36-.1.14-.18.3-.23.46v3.2h-1.43V38.1h1.3v1.01c.2-.35.51-.64.89-.81.41-.2.87-.3 1.33-.3.3-.01.59.06.85.2.22.1.4.28.52.48.12.22.2.45.25.7.04.25.07.51.07.78v3.41zm1.24-7.63h1.43v5.88c0 .17.05.33.15.47a.54.54 0 00.43.16c.1 0 .2-.01.28-.04.1-.02.2-.06.3-.1l.2 1.06a3.77 3.77 0 01-1.37.28 1.46 1.46 0 01-1.05-.34 1.3 1.3 0 01-.37-1v-6.37zm3.4 7.63V38.1h1.44v5.47h-1.44zm0-6.24v-1.39h1.44v1.4h-1.44zm7.94 6.24h-1.43V40.5c0-.44-.08-.76-.24-.96a.77.77 0 00-.65-.3c-.15 0-.3.02-.44.08-.15.06-.3.14-.42.23-.14.1-.26.23-.36.36-.1.14-.19.3-.24.46v3.2H167V38.1h1.3v1.01c.2-.35.52-.64.9-.81.4-.2.86-.3 1.32-.3.3-.01.6.06.86.2.2.1.38.28.51.48.13.22.21.45.25.7.05.25.07.51.07.78v3.41zm3.85.1c-.41.01-.83-.06-1.22-.22a2.8 2.8 0 01-1.52-1.5 2.97 2.97 0 010-2.18 2.69 2.69 0 011.52-1.54c.39-.16.81-.23 1.23-.23.43 0 .84.07 1.23.23.35.15.66.36.92.62.25.26.45.56.58.9a2.93 2.93 0 01.16 1.53h-4.33c.02.2.07.4.16.58a1.4 1.4 0 00.8.7c.16.06.34.1.53.1.28 0 .56-.08.8-.21.24-.12.42-.3.52-.54l1.23.33c-.21.44-.56.8-.98 1.03-.5.28-1.06.42-1.63.4zm1.46-3.3a1.44 1.44 0 00-1.47-1.35 1.46 1.46 0 00-.98.37 1.42 1.42 0 00-.46.98h2.9z"/>
    </g>
  </g>
  <defs>
    <filter id="filter0_d" width="178.29" height="36.81" x="22.06" y="10.76" color-interpolation-filters="sRGB" filterUnits="userSpaceOnUse">
      <feFlood flood-opacity="0" result="BackgroundImageFix"/>
      <feColorMatrix in="SourceAlpha" values="0 0 0 0 0 0 0 0 0 0 0 0 0 0 0 0 0 0 127 0"/>
      <feOffset dy="3"/>
      <feGaussianBlur stdDeviation="3"/>
      <feColorMatrix values="0 0 0 0 0 0 0 0 0 0 0 0 0 0 0 0 0 0 0.161 0"/>
      <feBlend in2="BackgroundImageFix" result="effect1_dropShadow"/>
      <feBlend in="SourceGraphic" in2="effect1_dropShadow" result="shape"/>
    </filter>
    <filter id="filter1_d" width="46.9" height="19.73" x="138.09" y="32.94" color-interpolation-filters="sRGB" filterUnits="userSpaceOnUse">
      <feFlood flood-opacity="0" result="BackgroundImageFix"/>
      <feColorMatrix in="SourceAlpha" values="0 0 0 0 0 0 0 0 0 0 0 0 0 0 0 0 0 0 127 0"/>
      <feOffset dy="3"/>
      <feGaussianBlur stdDeviation="3"/>
      <feColorMatrix values="0 0 0 0 0 0 0 0 0 0 0 0 0 0 0 0 0 0 0.161 0"/>
      <feBlend in2="BackgroundImageFix" result="effect1_dropShadow"/>
      <feBlend in="SourceGraphic" in2="effect1_dropShadow" result="shape"/>
    </filter>
    <linearGradient id="paint0_linear" x1="112" x2="112" y1="6.24" y2="48" gradientUnits="userSpaceOnUse">
      <stop stop-color="#75FDFF"/>
      <stop offset="1" stop-color="#29B6FF"/>
    </linearGradient>
    <clipPath id="clip0">
      <path fill="#fff" d="M0 0h224v48H0z"/>
    </clipPath>
  </defs>
</svg>