<svg xmlns="http://www.w3.org/2000/svg" fill="none" viewBox="0 0 356 48">
  <defs/>
  <g clip-path="url(#clip0)">
    <path fill="#007BFF" d="M33.67 27.2a14.7 14.7 0 01-2.26 7.43 13.67 13.67 0 01-5.81 4.98 19.8 19.8 0 01-8.55 1.77 15.8 15.8 0 01-12.5-5.18C1.53 32.76 0 27.9 0 21.61v-1.99c-.08-3.56.62-7.09 2.06-10.35a15.6 15.6 0 015.92-6.85C10.68.78 13.78-.06 16.94 0c4.26-.2 8.45 1.17 11.76 3.86a15.23 15.23 0 015.06 10.62h-9.68a7.2 7.2 0 00-1.85-5.28 7.61 7.61 0 00-5.3-1.6 5.79 5.79 0 00-5.3 2.71 17.4 17.4 0 00-1.77 8.65v2.85c-.23 3.15.33 6.3 1.61 9.2a5.91 5.91 0 005.57 2.76 7.44 7.44 0 005.11-1.58 6.69 6.69 0 001.88-5h9.64zm38.65-5.66c.07 3.59-.68 7.15-2.18 10.4a16.13 16.13 0 01-6.2 6.98 17.26 17.26 0 01-9.16 2.45c-3.2.06-6.35-.76-9.11-2.36a16.1 16.1 0 01-6.2-6.76 23.05 23.05 0 01-2.34-10.08V19.9c-.07-3.6.67-7.16 2.17-10.43a16.1 16.1 0 016.22-6.98A17.39 17.39 0 0154.73.03c3.2-.05 6.36.79 9.12 2.43a16.38 16.38 0 016.22 6.92 23.15 23.15 0 012.25 10.3v1.86zm-9.86-1.69c.2-3.16-.5-6.31-2-9.1a6.42 6.42 0 00-5.74-3.11c-4.86 0-7.43 3.65-7.7 10.94l-.03 2.96c-.18 3.15.5 6.3 1.96 9.1a6.41 6.41 0 005.83 3.18 6.34 6.34 0 005.66-3.13 16.93 16.93 0 002.02-8.98v-1.86zm48.92 1.69c.07 3.6-.67 7.15-2.18 10.42a16.14 16.14 0 01-6.2 6.96 17.26 17.26 0 01-9.16 2.45A17.5 17.5 0 0184.73 39a16.1 16.1 0 01-6.2-6.76 23.05 23.05 0 01-2.34-10.08V19.9c-.07-3.6.67-7.16 2.17-10.43a16.1 16.1 0 016.21-6.98A17.39 17.39 0 0193.8.03c3.2-.05 6.36.8 9.11 2.43a16.38 16.38 0 016.22 6.92 23.15 23.15 0 012.25 10.3l.01 1.86zm-9.86-1.7c.2-3.16-.5-6.31-2-9.1a6.43 6.43 0 00-5.73-3.11c-4.87 0-7.43 3.65-7.71 10.94l-.03 2.96c-.18 3.15.5 6.3 1.96 9.1a6.41 6.41 0 005.84 3.17 6.34 6.34 0 005.65-3.12 16.93 16.93 0 002.02-8.99v-1.85zm24.56 13.51h16.88v7.47h-26.58V.58h9.7v32.77zm30.66-6.19v13.66h-9.7V.58h16.06c2.81-.05 5.6.53 8.16 1.7a12.8 12.8 0 017.44 11.95 11.64 11.64 0 01-4.21 9.4 17.48 17.48 0 01-11.56 3.53h-6.19zm0-7.48h6.36a6 6 0 004.3-1.42 5.24 5.24 0 001.47-3.97 6.48 6.48 0 00-1.52-4.5 5.38 5.38 0 00-4.14-1.72h-6.47v11.6zm61.2 1.85c.06 3.6-.68 7.15-2.2 10.42a16.13 16.13 0 01-6.2 6.97 17.26 17.26 0 01-9.15 2.45 17.5 17.5 0 01-9.12-2.36 16.1 16.1 0 01-6.2-6.76 23.05 23.05 0 01-2.34-10.08V19.9c-.07-3.6.67-7.16 2.17-10.43a16.08 16.08 0 016.22-6.98 17.39 17.39 0 019.21-2.46c3.2-.05 6.36.8 9.12 2.43a16.38 16.38 0 016.23 6.93 23.17 23.17 0 012.25 10.29v1.85zm-9.87-1.69c.2-3.16-.5-6.31-2-9.1a6.42 6.42 0 00-5.74-3.11c-4.86 0-7.43 3.65-7.7 10.94l-.03 2.96c-.18 3.15.5 6.3 1.96 9.1a6.42 6.42 0 005.84 3.17 6.33 6.33 0 005.65-3.12 16.93 16.93 0 002.02-8.98v-1.86zm48.92 1.69c.07 3.6-.68 7.15-2.19 10.41a16.14 16.14 0 01-6.18 6.98 17.26 17.26 0 01-9.16 2.45c-3.2.06-6.35-.76-9.12-2.36a16.1 16.1 0 01-6.2-6.76 23.05 23.05 0 01-2.33-10.08V19.9c-.08-3.6.66-7.16 2.17-10.43a16.09 16.09 0 016.21-6.98 17.39 17.39 0 019.22-2.46c3.2-.05 6.36.8 9.11 2.43a16.38 16.38 0 016.23 6.93A23.17 23.17 0 01257 19.68v1.85zm-9.86-1.69c.2-3.16-.5-6.31-2-9.1a6.43 6.43 0 00-5.73-3.11c-4.87 0-7.44 3.65-7.71 10.94l-.03 2.96c-.18 3.15.5 6.3 1.96 9.1a6.41 6.41 0 005.84 3.17 6.34 6.34 0 005.65-3.12 16.94 16.94 0 002.02-8.98v-1.86zm24.56 13.51h16.88v7.47H262V.58h9.7v32.77zm22.7 3.04a2.4 2.4 0 011.8.67 2.3 2.3 0 01.64 1.66 2.23 2.23 0 01-.64 1.64 2.43 2.43 0 01-1.8.64 2.44 2.44 0 01-1.79-.63 2.2 2.2 0 01-.65-1.64 2.3 2.3 0 01.63-1.67 2.38 2.38 0 011.8-.67zm25.83-17.2h-7.84v21.63h-4.33V19.19h-7.77v-3.52h19.94v3.52zm-1.49 12.1c-.02-1.7.35-3.4 1.1-4.94a7.94 7.94 0 013.05-3.39 8.6 8.6 0 014.52-1.18 8.15 8.15 0 016.14 2.43 9.57 9.57 0 012.55 6.46l.01.99c.03 1.7-.33 3.4-1.06 4.94a7.85 7.85 0 01-3.04 3.36 8.67 8.67 0 01-4.57 1.2 8.1 8.1 0 01-6.33-2.63 10.09 10.09 0 01-2.37-7.02v-.21zm4.2.37c-.1 1.6.32 3.18 1.2 4.52a3.86 3.86 0 003.3 1.63 3.83 3.83 0 003.31-1.66 8.31 8.31 0 001.18-4.85 7.43 7.43 0 00-1.21-4.49 3.88 3.88 0 00-3.3-1.66 3.85 3.85 0 00-3.27 1.64 8.16 8.16 0 00-1.22 4.87zm33.08 0c.13 2.46-.56 4.9-1.97 6.92a6.31 6.31 0 01-5.29 2.59 6.35 6.35 0 01-4.92-2.02V48h-4.2V22.13h3.87l.18 1.9a6.16 6.16 0 015.02-2.25 6.36 6.36 0 015.37 2.55c1.4 2.08 2.09 4.57 1.94 7.07v.26zm-4.18-.36a7.8 7.8 0 00-1.11-4.44 3.62 3.62 0 00-3.18-1.64 3.86 3.86 0 00-3.7 2.12v8.3a3.89 3.89 0 003.73 2.17 3.62 3.62 0 003.13-1.62 8.58 8.58 0 001.12-4.9h.01z"/>
  </g>
  <defs>
    <clipPath id="clip0">
      <path fill="#fff" d="M0 0h356v48H0z"/>
    </clipPath>
  </defs>
</svg>